<?xml version="1.0" encoding="UTF-8"?>
<!DOCTYPE svg PUBLIC "-//W3C//DTD SVG 1.1//EN" "http://www.w3.org/Graphics/SVG/1.1/DTD/svg11.dtd">
<svg xmlns="http://www.w3.org/2000/svg" version="1.1" width="1024px" height="1024px" style="shape-rendering:geometricPrecision; text-rendering:geometricPrecision; image-rendering:optimizeQuality; fill-rule:evenodd; clip-rule:evenodd" xmlns:xlink="http://www.w3.org/1999/xlink">
<g><path style="opacity:0.012" fill="#39d7ec" d="M 204.5,192.5 C 203.833,191.167 203.833,191.167 204.5,192.5 Z"/></g>
<g><path style="opacity:0.004" fill="#3bd7ed" d="M 194.5,203.5 C 193.833,202.167 193.833,202.167 194.5,203.5 Z"/></g>
<g><path style="opacity:0.004" fill="#39d9ee" d="M 191.5,206.5 C 192.833,207.167 192.833,207.167 191.5,206.5 Z"/></g>
<g><path style="opacity:0.004" fill="#3ee0f4" d="M 188.5,224.5 C 189.833,225.167 189.833,225.167 188.5,224.5 Z"/></g>
<g><path style="opacity:0.004" fill="#37e3f8" d="M 192.5,239.5 C 193.833,240.167 193.833,240.167 192.5,239.5 Z"/></g>
<g><path style="opacity:0.004" fill="#37d9ec" d="M 381.5,239.5 C 382.833,240.167 382.833,240.167 381.5,239.5 Z"/></g>
<g><path style="opacity:0.008" fill="#36e4f8" d="M 193.5,242.5 C 194.833,243.167 194.833,243.167 193.5,242.5 Z"/></g>
<g><path style="opacity:0.004" fill="#34eafb" d="M 201.5,250.5 C 202.833,251.167 202.833,251.167 201.5,250.5 Z"/></g>
<g><path style="opacity:0.004" fill="#3edaeb" d="M 97.5,267.5 C 98.8333,268.167 98.8333,268.167 97.5,267.5 Z"/></g>
<g><path style="opacity:0.004" fill="#3bd9ec" d="M 403.5,270.5 C 404.833,271.167 404.833,271.167 403.5,270.5 Z"/></g>
<g><path style="opacity:0.008" fill="#32e7fb" d="M 381.5,309.5 C 382.525,309.897 382.692,310.563 382,311.5C 381.536,310.906 381.369,310.239 381.5,309.5 Z"/></g>
<g><path style="opacity:0.993" fill="#2beafe" d="M 269.5,279.5 C 277.788,292.637 287.454,304.803 298.5,316C 304.387,318.423 309.387,317.256 313.5,312.5C 321.038,308.3 327.704,302.966 333.5,296.5C 336.167,294.5 338.5,292.167 340.5,289.5C 342.845,288.148 344.512,286.148 345.5,283.5C 338.734,264.961 344.067,251.127 361.5,242C 378.717,237.53 391.551,243.03 400,258.5C 404.424,272.133 401.924,284.299 392.5,295C 388.653,297.206 385.153,299.706 382,302.5C 375.215,337.877 368.215,373.21 361,408.5C 357.144,421.35 348.477,427.683 335,427.5C 274.985,424.231 214.818,427.397 154.5,437C 149.139,437.609 143.805,437.442 138.5,436.5C 130.545,433.377 125.045,427.71 122,419.5C 113.392,391.343 105.392,363.009 98,334.5C 97.6667,335.167 97.3333,335.833 97,336.5C 96.5,335.333 95.6667,334.5 94.5,334C 89.1332,333.409 84.1332,331.742 79.5,329C 75.9626,325.631 72.6293,322.131 69.5,318.5C 60.8923,300.137 64.8923,284.971 81.5,273C 80.8333,272.667 80.1667,272.333 79.5,272C 80.7839,271.316 81.9505,271.483 83,272.5C 105.791,265.395 120.125,273.395 126,296.5C 125.754,300.741 125.92,304.908 126.5,309C 136.711,316.858 147.711,323.525 159.5,329C 163.926,330.652 168.259,330.818 172.5,329.5C 176.518,327.899 179.684,325.232 182,321.5C 195.477,300.069 203.144,276.736 205,251.5C 189.843,238.167 186.343,222.167 194.5,203.5C 197.805,199.859 201.138,196.192 204.5,192.5C 222.726,182.47 239.559,184.47 255,198.5C 267.516,217.203 265.683,234.37 249.5,250C 255.232,260.548 261.899,270.381 269.5,279.5 Z M 92.5,290.5 C 103.603,290.435 107.77,295.768 105,306.5C 101.65,311.083 97.1501,312.583 91.5,311C 85.6072,307.179 84.1072,302.012 87,295.5C 88.3516,293.251 90.1849,291.584 92.5,290.5 Z M 371.5,260.5 C 380.576,262.319 383.743,267.652 381,276.5C 379.833,277.667 378.667,278.833 377.5,280C 364.413,281.561 360.246,276.061 365,263.5C 367.166,262.269 369.333,261.269 371.5,260.5 Z M 240.5,274.5 C 245.523,280.867 250.19,287.534 254.5,294.5C 263.837,307.685 274.17,320.185 285.5,332C 293.052,338.964 301.719,340.964 311.5,338C 318.886,334.314 325.886,330.147 332.5,325.5C 334.751,322.705 337.418,320.372 340.5,318.5C 347.146,312.188 353.813,305.855 360.5,299.5C 360.833,300.5 361.167,301.5 361.5,302.5C 355.656,334.563 349.489,366.563 343,398.5C 342.394,401.548 340.894,404.048 338.5,406C 275.227,403.492 212.06,407.325 149,417.5C 147.342,417.325 146.009,416.658 145,415.5C 143.853,416.458 142.853,416.125 142,414.5C 132.183,385.882 123.683,356.882 116.5,327.5C 128.36,335.934 141.027,343.101 154.5,349C 163.056,352.488 171.722,352.988 180.5,350.5C 194.117,341.362 203.951,329.028 210,313.5C 217.503,295.49 222.669,276.823 225.5,257.5C 227.467,257.261 229.301,257.594 231,258.5C 234.441,263.724 237.608,269.057 240.5,274.5 Z M 224.5,207.5 C 234.291,207.291 240.291,211.958 242.5,221.5C 241.403,231.431 235.903,236.765 226,237.5C 212.435,234.37 208.435,226.37 214,213.5C 216.793,210.027 220.293,208.027 224.5,207.5 Z"/></g>
<g><path style="opacity:0.004" fill="#34e9fb" d="M 333.5,296.5 C 332.833,295.167 332.833,295.167 333.5,296.5 Z"/></g>
<g><path style="opacity:0.004" fill="#37edfd" d="M 340.5,288.5 C 340.5,288.833 340.5,289.167 340.5,289.5C 339.83,289.019 339.83,288.685 340.5,288.5 Z"/></g>
<g><path style="opacity:0.004" fill="#36ebfe" d="M 340.5,287.5 C 341.833,288.167 341.833,288.167 340.5,287.5 Z"/></g>
<g><path style="opacity:0.004" fill="#33e9fc" d="M 269.5,278.5 C 270.833,279.167 270.833,279.167 269.5,278.5 Z"/></g>
<g><path style="opacity:0.004" fill="#34eafa" d="M 200.5,271.5 C 201.833,272.167 201.833,272.167 200.5,271.5 Z"/></g>
<g><path style="opacity:0.004" fill="#33eaf9" d="M 313.5,312.5 C 312.833,311.167 312.833,311.167 313.5,312.5 Z"/></g>
<g><path style="opacity:0.012" fill="#32ecfc" d="M 250.5,249.5 C 251.833,250.167 251.833,250.167 250.5,249.5 Z"/></g>
<g><path style="opacity:0.004" fill="#34edfe" d="M 301.5,313.5 C 302.833,314.167 302.833,314.167 301.5,313.5 Z"/></g>
<g><path style="opacity:0.004" fill="#3cdef2" d="M 66.5,315.5 C 65.8333,314.167 65.8333,314.167 66.5,315.5 Z"/></g>
<g><path style="opacity:0.004" fill="#38dff3" d="M 66.5,315.5 C 67.8333,316.167 67.8333,316.167 66.5,315.5 Z"/></g>
<g><path style="opacity:0.008" fill="#38e0f3" d="M 69.5,318.5 C 68.8333,319.167 68.8333,319.167 69.5,318.5 Z"/></g>
<g><path style="opacity:0.004" fill="#34eafd" d="M 145.5,319.5 C 146.833,320.167 146.833,320.167 145.5,319.5 Z"/></g>
<g><path style="opacity:0.004" fill="#32eefe" d="M 172.5,329.5 C 171.833,328.167 171.833,328.167 172.5,329.5 Z"/></g>
<g><path style="opacity:0.008" fill="#35ebfa" d="M 97.5,338.5 C 98.8333,339.167 98.8333,339.167 97.5,338.5 Z"/></g>
<g><path style="opacity:0.997" fill="#20e7fe" d="M 241.5,291.5 C 243.763,296.365 246.763,300.698 250.5,304.5C 257.363,315.699 265.696,325.699 275.5,334.5C 279.069,339.612 283.736,343.278 289.5,345.5C 291.7,347.64 294.367,349.14 297.5,350C 311.219,351.47 322.885,347.303 332.5,337.5C 335.938,335.241 339.271,332.741 342.5,330C 343.743,328.846 344.743,327.512 345.5,326C 346.6,325.568 347.267,326.068 347.5,327.5C 343.097,350.759 338.43,373.925 333.5,397C 288.168,395.34 243.501,396.84 199.5,401.5C 197.369,400.686 195.036,400.186 192.5,400C 210.82,398.187 229.153,396.52 247.5,395C 250.066,392.93 252.733,391.93 255.5,392C 261.748,391.812 267.915,391.312 274,390.5C 280.806,391.048 287.64,391.381 294.5,391.5C 296.767,391.441 297.433,390.608 296.5,389C 297.876,386.457 299.043,386.291 300,388.5C 301.135,388.273 302.302,387.94 303.5,387.5C 303.12,385.979 302.954,384.313 303,382.5C 302.667,382.833 302.333,383.167 302,383.5C 301.691,382.234 301.191,381.067 300.5,380C 301.624,379.751 302.624,379.251 303.5,378.5C 303.333,378.167 303.167,377.833 303,377.5C 301.333,378.167 299.667,378.833 298,379.5C 297.716,377.114 296.716,376.448 295,377.5C 293.988,375.136 292.655,373.802 291,373.5C 290.333,377.5 289.667,377.5 289,373.5C 287.334,374.34 287.167,373.84 288.5,372C 287.853,370.391 287.02,368.891 286,367.5C 285.692,368.308 285.192,368.975 284.5,369.5C 284.167,368.833 283.833,368.167 283.5,367.5C 282.575,368.641 281.741,368.641 281,367.5C 280.667,368.167 280.333,368.833 280,369.5C 279.311,368.643 278.478,367.977 277.5,367.5C 276.033,367.723 274.533,368.056 273,368.5C 271.383,367.359 269.55,366.526 267.5,366C 267.833,365.667 268.167,365.333 268.5,365C 266.765,364.349 265.098,364.515 263.5,365.5C 261.884,364.885 260.551,363.885 259.5,362.5C 259.331,363.397 258.998,364.397 258.5,365.5C 256.562,362.921 254.729,362.921 253,365.5C 251.488,364.743 250.154,363.743 249,362.5C 248,364.167 247,365.833 246,367.5C 244.887,366.24 244.72,365.073 245.5,364C 244.004,363.493 242.837,363.993 242,365.5C 241,364.167 240,362.833 239,361.5C 238.692,362.308 238.192,362.975 237.5,363.5C 236.575,362.359 235.741,362.359 235,363.5C 234.333,360.833 233.667,360.833 233,363.5C 232.71,361.956 232.044,360.623 231,359.5C 230.135,361.225 229.469,362.892 229,364.5C 228.612,363.572 227.945,362.905 227,362.5C 224.222,363.607 221.389,363.607 218.5,362.5C 216.222,362.781 215.055,364.115 215,366.5C 211.226,363.341 209.56,364.008 210,368.5C 205.517,366.698 201.517,367.365 198,370.5C 196.701,370.034 195.201,370.034 193.5,370.5C 193.649,371.552 193.483,372.552 193,373.5C 192.086,372.346 191.253,372.513 190.5,374C 192.932,375.087 192.598,375.587 189.5,375.5C 189.649,374.448 189.483,373.448 189,372.5C 188.15,373.424 187.15,373.424 186,372.5C 185.5,372.833 185,373.167 184.5,373.5C 184.846,374.696 185.346,374.696 186,373.5C 186.688,374.332 186.521,374.998 185.5,375.5C 183.51,376.873 181.343,377.873 179,378.5C 178.28,380.112 178.446,381.612 179.5,383C 178.093,384.452 176.593,384.285 175,382.5C 174.667,383.167 174.333,383.833 174,384.5C 173.213,383.289 172.546,382.289 172,381.5C 171.665,383.329 170.498,384.329 168.5,384.5C 170.344,386.843 172.344,389.01 174.5,391C 173.483,392.049 173.316,393.216 174,394.5C 174.906,392.388 176.406,391.555 178.5,392C 179.623,393.875 179.623,396.042 178.5,398.5C 182.809,399.313 187.143,400.147 191.5,401C 188.984,401.091 187.318,401.591 186.5,402.5C 174.358,404.501 162.191,406.834 150,409.5C 146.672,400.499 143.505,391.499 140.5,382.5C 137.024,371.264 134.191,359.931 132,348.5C 142.709,356.937 154.876,361.604 168.5,362.5C 172.117,362.602 175.45,361.935 178.5,360.5C 188.325,357.865 196.492,352.532 203,344.5C 203.513,343.473 204.013,342.473 204.5,341.5C 218.785,323.345 227.452,302.679 230.5,279.5C 231.675,279.281 232.675,279.614 233.5,280.5C 235.454,284.766 238.121,288.433 241.5,291.5 Z"/></g>
<g><path style="opacity:0.008" fill="#37eafb" d="M 100.5,350.5 C 101.833,351.167 101.833,351.167 100.5,350.5 Z"/></g>
<g><path style="opacity:0.998" fill="#16e3fd" d="M 199.5,401.5 C 195.19,402.08 190.857,402.414 186.5,402.5C 187.318,401.591 188.984,401.091 191.5,401C 187.143,400.147 182.809,399.313 178.5,398.5C 179.623,396.042 179.623,393.875 178.5,392C 176.406,391.555 174.906,392.388 174,394.5C 173.316,393.216 173.483,392.049 174.5,391C 172.344,389.01 170.344,386.843 168.5,384.5C 170.498,384.329 171.665,383.329 172,381.5C 172.546,382.289 173.213,383.289 174,384.5C 174.333,383.833 174.667,383.167 175,382.5C 176.593,384.285 178.093,384.452 179.5,383C 178.446,381.612 178.28,380.112 179,378.5C 181.343,377.873 183.51,376.873 185.5,375.5C 186.521,374.998 186.688,374.332 186,373.5C 185.346,374.696 184.846,374.696 184.5,373.5C 185,373.167 185.5,372.833 186,372.5C 187.15,373.424 188.15,373.424 189,372.5C 189.483,373.448 189.649,374.448 189.5,375.5C 192.598,375.587 192.932,375.087 190.5,374C 191.253,372.513 192.086,372.346 193,373.5C 193.483,372.552 193.649,371.552 193.5,370.5C 195.201,370.034 196.701,370.034 198,370.5C 201.517,367.365 205.517,366.698 210,368.5C 209.56,364.008 211.226,363.341 215,366.5C 215.055,364.115 216.222,362.781 218.5,362.5C 221.389,363.607 224.222,363.607 227,362.5C 227.945,362.905 228.612,363.572 229,364.5C 229.469,362.892 230.135,361.225 231,359.5C 232.044,360.623 232.71,361.956 233,363.5C 233.667,360.833 234.333,360.833 235,363.5C 235.741,362.359 236.575,362.359 237.5,363.5C 238.192,362.975 238.692,362.308 239,361.5C 240,362.833 241,364.167 242,365.5C 242.837,363.993 244.004,363.493 245.5,364C 244.72,365.073 244.887,366.24 246,367.5C 247,365.833 248,364.167 249,362.5C 250.154,363.743 251.488,364.743 253,365.5C 254.729,362.921 256.562,362.921 258.5,365.5C 258.998,364.397 259.331,363.397 259.5,362.5C 260.551,363.885 261.884,364.885 263.5,365.5C 265.098,364.515 266.765,364.349 268.5,365C 268.167,365.333 267.833,365.667 267.5,366C 269.55,366.526 271.383,367.359 273,368.5C 274.533,368.056 276.033,367.723 277.5,367.5C 278.478,367.977 279.311,368.643 280,369.5C 280.333,368.833 280.667,368.167 281,367.5C 281.741,368.641 282.575,368.641 283.5,367.5C 283.833,368.167 284.167,368.833 284.5,369.5C 285.192,368.975 285.692,368.308 286,367.5C 287.02,368.891 287.853,370.391 288.5,372C 287.167,373.84 287.334,374.34 289,373.5C 289.667,377.5 290.333,377.5 291,373.5C 292.655,373.802 293.988,375.136 295,377.5C 296.716,376.448 297.716,377.114 298,379.5C 299.667,378.833 301.333,378.167 303,377.5C 303.167,377.833 303.333,378.167 303.5,378.5C 302.624,379.251 301.624,379.751 300.5,380C 301.191,381.067 301.691,382.234 302,383.5C 302.333,383.167 302.667,382.833 303,382.5C 302.954,384.313 303.12,385.979 303.5,387.5C 302.302,387.94 301.135,388.273 300,388.5C 299.043,386.291 297.876,386.457 296.5,389C 297.433,390.608 296.767,391.441 294.5,391.5C 287.64,391.381 280.806,391.048 274,390.5C 267.915,391.312 261.748,391.812 255.5,392C 252.733,391.93 250.066,392.93 247.5,395C 229.153,396.52 210.82,398.187 192.5,400C 195.036,400.186 197.369,400.686 199.5,401.5 Z"/></g>
<g><path style="opacity:0.004" fill="#33e9fa" d="M 104.5,366.5 C 105.833,367.167 105.833,367.167 104.5,366.5 Z"/></g>
<g><path style="opacity:0.008" fill="#36e8f9" d="M 105.5,370.5 C 106.833,371.167 106.833,371.167 105.5,370.5 Z"/></g>
<g><path style="opacity:0.004" fill="#35e8fb" d="M 106.5,373.5 C 107.833,374.167 107.833,374.167 106.5,373.5 Z"/></g>
<g><path style="opacity:0.004" fill="#32e7fa" d="M 366.5,385.5 C 367.833,386.167 367.833,386.167 366.5,385.5 Z"/></g>
<g><path style="opacity:0.006" fill="#35e9fa" d="M 115.5,404.5 C 116.525,404.897 116.692,405.563 116,406.5C 115.536,405.906 115.369,405.239 115.5,404.5 Z"/></g>
<g><path style="opacity:0.004" fill="#2fecfd" d="M 243.5,428.5 C 244.833,429.167 244.833,429.167 243.5,428.5 Z"/></g>
<g><path style="opacity:0.01" fill="#2eebfe" d="M 226.5,430.5 C 226.897,429.475 227.563,429.308 228.5,430C 227.906,430.464 227.239,430.631 226.5,430.5 Z"/></g>
<g><path style="opacity:0.004" fill="#2fedfe" d="M 216.5,430.5 C 217.833,431.167 217.833,431.167 216.5,430.5 Z"/></g>
<g><path style="opacity:0.004" fill="#31eefe" d="M 219.5,430.5 C 220.833,431.167 220.833,431.167 219.5,430.5 Z"/></g>
<g><path style="opacity:0.004" fill="#2a2a28" d="M 833.5,434.5 C 834.833,435.167 834.833,435.167 833.5,434.5 Z"/></g>
<g><path style="opacity:0.004" fill="#2b2b2c" d="M 916.5,434.5 C 917.833,435.167 917.833,435.167 916.5,434.5 Z"/></g>
<g><path style="opacity:0.004" fill="#35eafb" d="M 116.5,435.5 C 117.833,436.167 117.833,436.167 116.5,435.5 Z"/></g>
<g><path style="opacity:0.004" fill="#34e9fe" d="M 172.5,435.5 C 173.833,436.167 173.833,436.167 172.5,435.5 Z"/></g>
<g><path style="opacity:0.004" fill="#30edfe" d="M 214.5,435.5 C 215.833,436.167 215.833,436.167 214.5,435.5 Z"/></g>
<g><path style="opacity:0.004" fill="#37e9fa" d="M 393.5,435.5 C 394.833,436.167 394.833,436.167 393.5,435.5 Z"/></g>
<g><path style="opacity:0.004" fill="#3fd5e8" d="M 483.5,435.5 C 484.833,436.167 484.833,436.167 483.5,435.5 Z"/></g>
<g><path style="opacity:0.004" fill="#384b51" d="M 536.5,435.5 C 537.833,436.167 537.833,436.167 536.5,435.5 Z"/></g>
<g><path style="opacity:0.004" fill="#37494a" d="M 539.5,435.5 C 540.833,436.167 540.833,436.167 539.5,435.5 Z"/></g>
<g><path style="opacity:0.004" fill="#2c2e2c" d="M 604.5,435.5 C 605.833,436.167 605.833,436.167 604.5,435.5 Z"/></g>
<g><path style="opacity:0.004" fill="#2a2d2e" d="M 606.5,435.5 C 607.833,436.167 607.833,436.167 606.5,435.5 Z"/></g>
<g><path style="opacity:0.004" fill="#292a29" d="M 665.5,435.5 C 666.833,436.167 666.833,436.167 665.5,435.5 Z"/></g>
<g><path style="opacity:0.004" fill="#2a292a" d="M 667.5,435.5 C 668.833,436.167 668.833,436.167 667.5,435.5 Z"/></g>
<g><path style="opacity:0.004" fill="#2a2b2b" d="M 676.5,435.5 C 677.833,436.167 677.833,436.167 676.5,435.5 Z"/></g>
<g><path style="opacity:0.004" fill="#2a2a2a" d="M 678.5,435.5 C 679.833,436.167 679.833,436.167 678.5,435.5 Z"/></g>
<g><path style="opacity:0.004" fill="#292929" d="M 734.5,435.5 C 735.833,436.167 735.833,436.167 734.5,435.5 Z"/></g>
<g><path style="opacity:0.012" fill="#282927" d="M 736.5,435.5 C 737.833,436.167 737.833,436.167 736.5,435.5 Z"/></g>
<g><path style="opacity:0.005" fill="#292728" d="M 738.5,436.5 C 739.946,435.387 741.613,435.22 743.5,436C 741.866,436.494 740.199,436.66 738.5,436.5 Z"/></g>
<g><path style="opacity:0.004" fill="#2a2b29" d="M 747.5,435.5 C 748.833,436.167 748.833,436.167 747.5,435.5 Z"/></g>
<g><path style="opacity:0.004" fill="#2a2829" d="M 819.5,436.5 C 819.897,435.475 820.563,435.308 821.5,436C 820.906,436.464 820.239,436.631 819.5,436.5 Z"/></g>
<g><path style="opacity:0.004" fill="#292827" d="M 827.5,435.5 C 828.833,436.167 828.833,436.167 827.5,435.5 Z"/></g>
<g><path style="opacity:0.004" fill="#31ebfd" d="M 138.5,436.5 C 138.5,436.833 138.5,437.167 138.5,437.5C 137.83,437.019 137.83,436.685 138.5,436.5 Z"/></g>
<g><path style="opacity:0.004" fill="#2a2a28" d="M 754.5,436.5 C 755.833,437.167 755.833,437.167 754.5,436.5 Z"/></g>
<g><path style="opacity:0.004" fill="#282a2a" d="M 815.5,436.5 C 816.833,437.167 816.833,437.167 815.5,436.5 Z"/></g>
<g><path style="opacity:0.012" fill="#2e2d2c" d="M 952.5,436.5 C 953.833,437.167 953.833,437.167 952.5,436.5 Z"/></g>
<g><path style="opacity:0.997" fill="#2ceafe" d="M 443.5,471.5 C 443.783,472.289 444.283,472.956 445,473.5C 449.162,465.172 453.829,457.172 459,449.5C 476.42,434.705 494.587,433.705 513.5,446.5C 513.842,447.338 514.508,447.672 515.5,447.5C 511.925,450.65 509.925,454.65 509.5,459.5C 509.5,460.167 509.833,460.5 510.5,460.5C 510.649,461.552 510.483,462.552 510,463.5C 509.581,462.328 508.915,461.328 508,460.5C 506.88,462.03 506.046,463.697 505.5,465.5C 505.567,466.959 505.234,468.292 504.5,469.5C 501.46,461.71 495.627,457.71 487,457.5C 480.452,457.774 475.119,460.441 471,465.5C 461.957,481.044 453.124,496.711 444.5,512.5C 436.413,498.662 428.58,484.662 421,470.5C 413.036,458.462 402.203,454.962 388.5,460C 381.154,466.225 379.654,473.725 384,482.5C 395.717,502.641 406.717,522.641 417,542.5C 417.826,547.589 417.492,552.589 416,557.5C 406.17,575.164 395.837,592.497 385,609.5C 380.567,616.406 379.567,623.739 382,631.5C 385.675,638.172 391.342,641.172 399,640.5C 406.527,640.965 412.194,637.965 416,631.5C 424.943,615.933 434.11,600.6 443.5,585.5C 453.582,602.667 463.915,619.667 474.5,636.5C 488.676,644.354 498.842,641.354 505,627.5C 505.767,623.406 505.434,619.406 504,615.5C 493.667,597.5 483.333,579.5 473,561.5C 470.774,557.482 468.941,553.315 467.5,549C 469.289,542.916 471.789,537.083 475,531.5C 485.62,514.591 495.453,497.258 504.5,479.5C 505.172,490.112 506.505,500.779 508.5,511.5C 508.5,512.167 508.5,512.833 508.5,513.5C 501.72,524.887 495.053,536.387 488.5,548C 490.655,554.144 493.489,559.978 497,565.5C 506.73,580.348 515.23,595.348 522.5,610.5C 523.341,617.465 523.674,624.465 523.5,631.5C 522.543,637.746 520.21,643.412 516.5,648.5C 498.652,664.577 479.985,665.577 460.5,651.5C 454.175,642.193 448.342,632.527 443,622.5C 442.209,623.745 441.709,625.078 441.5,626.5C 436.256,634.928 430.756,643.262 425,651.5C 412.608,661.444 398.774,663.944 383.5,659C 379.065,656.366 374.565,653.866 370,651.5C 359.279,658.972 347.446,661.972 334.5,660.5C 331.546,662.35 328.38,662.35 325,660.5C 323.316,660.683 323.15,661.35 324.5,662.5C 323.244,662.096 322.077,661.429 321,660.5C 319.667,661.833 318.333,661.833 317,660.5C 315.989,661.056 315.156,661.722 314.5,662.5C 313.122,661.766 311.622,661.099 310,660.5C 302.701,661.489 295.868,661.489 289.5,660.5C 286.964,660.844 284.797,661.844 283,663.5C 282.228,662.151 281.061,661.318 279.5,661C 263.742,660.953 251.075,654.787 241.5,642.5C 241.167,639.833 240.833,639.833 240.5,642.5C 236.833,646.833 232.833,650.833 228.5,654.5C 211.467,663.79 194.467,663.79 177.5,654.5C 174.229,651.732 171.062,648.732 168,645.5C 161.202,634.198 154.702,622.865 148.5,611.5C 147.952,607.213 147.286,606.88 146.5,610.5C 146.79,612.044 147.456,613.377 148.5,614.5C 148.154,615.696 147.654,615.696 147,614.5C 147.287,648.05 130.787,663.383 97.5,660.5C 94.7442,658.796 91.7442,657.463 88.5,656.5C 84.5342,653.536 80.8675,650.203 77.5,646.5C 76.4884,645.128 75.4884,643.795 74.5,642.5C 72.3832,637.37 70.8832,632.036 70,626.5C 69.3333,575.5 69.3333,524.5 70,473.5C 72.0587,464.049 76.2254,455.716 82.5,448.5C 103.064,433.563 123.397,433.897 143.5,449.5C 145.856,452.022 148.023,454.688 150,457.5C 156.971,471.106 163.637,484.773 170,498.5C 166.985,481.936 169.985,466.603 179,452.5C 183.423,447.391 188.59,443.391 194.5,440.5C 205.825,436.501 217.159,436.501 228.5,440.5C 234.052,443.871 239.219,447.871 244,452.5C 245.045,451.627 245.878,450.627 246.5,449.5C 254.291,442.11 263.624,438.277 274.5,438C 298.833,437.333 323.167,437.333 347.5,438C 356.099,438.865 363.932,441.698 371,446.5C 374.33,444.652 377.497,442.652 380.5,440.5C 400.073,433.683 417.24,437.683 432,452.5C 435.859,458.897 439.692,465.23 443.5,471.5 Z M 172.5,541.5 C 177.988,550.469 183.488,559.469 189,568.5C 189.333,536.833 189.667,505.167 190,473.5C 190.439,468.979 192.605,465.646 196.5,463.5C 205.607,456.017 215.107,455.684 225,462.5C 227.11,465.492 228.443,468.825 229,472.5C 229.667,521.5 229.667,570.5 229,619.5C 227.539,630.594 221.372,637.427 210.5,640C 201.973,641.569 193.973,640.235 186.5,636C 184.641,634.442 183.141,632.609 182,630.5C 165.004,600.504 147.504,570.837 129.5,541.5C 128.667,569.494 128.167,597.494 128,625.5C 127.44,629.627 125.607,632.96 122.5,635.5C 120.59,637.562 118.257,639.062 115.5,640C 103.275,643.054 94.7746,638.887 90,627.5C 89.0171,621.88 88.5171,616.213 88.5,610.5C 88.645,567.426 88.645,524.593 88.5,482C 89.9936,464.176 99.6603,456.176 117.5,458C 124.83,459.245 130.33,463.079 134,469.5C 147.113,493.395 159.946,517.395 172.5,541.5 Z M 347.5,533.5 C 352.888,535.066 356.055,538.733 357,544.5C 359.218,560.946 352.052,569.446 335.5,570C 321.833,570.333 308.167,570.667 294.5,571C 293.364,572.145 292.364,573.312 291.5,574.5C 291.334,582.84 291.5,591.173 292,599.5C 292.465,600.931 293.299,602.097 294.5,603C 297.224,603.27 299.891,603.77 302.5,604.5C 317.54,603.963 333.207,603.797 349.5,604C 359.358,605.199 364.358,610.866 364.5,621C 363.855,631.309 358.522,637.643 348.5,640C 322.833,640.667 297.167,640.667 271.5,640C 261.016,637.18 255.182,630.346 254,619.5C 253.333,572.167 253.333,524.833 254,477.5C 255.791,466.376 262.291,459.876 273.5,458C 298.167,457.333 322.833,457.333 347.5,458C 358.488,459.158 364.154,465.325 364.5,476.5C 363.788,484.413 360.455,490.247 354.5,494C 335.885,495.282 317.218,495.948 298.5,496C 295.233,495.937 293.066,497.437 292,500.5C 291.333,509.5 291.333,518.5 292,527.5C 292.465,528.931 293.299,530.097 294.5,531C 308.673,530.873 322.673,531.706 336.5,533.5C 337.468,532.511 338.635,531.844 340,531.5C 342.708,531.867 345.208,532.534 347.5,533.5 Z M 381.5,518.5 C 387.995,527.986 393.328,538.153 397.5,549C 390.656,564.501 382.156,579.001 372,592.5C 367.767,589.271 363.267,586.438 358.5,584C 372.631,572.96 378.131,558.46 375,540.5C 373.538,529.4 368.371,520.566 359.5,514C 364,510.915 368.667,508.082 373.5,505.5C 376.927,509.351 379.594,513.685 381.5,518.5 Z"/></g>
<g><path style="opacity:0.014" fill="#33eafb" d="M 146.5,439.5 C 147.251,438.427 148.251,438.26 149.5,439C 148.552,439.483 147.552,439.649 146.5,439.5 Z"/></g>
<g><path style="opacity:0.004" fill="#34eaf9" d="M 140.5,438.5 C 141.833,439.167 141.833,439.167 140.5,438.5 Z"/></g>
<g><path style="opacity:0.004" fill="#31ebfd" d="M 156.5,437.5 C 157.833,438.167 157.833,438.167 156.5,437.5 Z"/></g>
<g><path style="opacity:0.008" fill="#35e8fb" d="M 138.5,437.5 C 139.833,438.167 139.833,438.167 138.5,437.5 Z"/></g>
<g><path style="opacity:0.987" fill="#121112" d="M 576.5,447.5 C 593.364,435.565 611.031,434.398 629.5,444C 633.006,446.34 636.006,449.174 638.5,452.5C 649.397,440.182 663.064,435.349 679.5,438C 683.207,438.737 686.873,439.571 690.5,440.5C 694.143,443.135 697.81,445.801 701.5,448.5C 702.833,452.5 704.167,452.5 705.5,448.5C 719.243,438.416 734.576,435.083 751.5,438.5C 742.889,440.31 733.889,441.144 724.5,441C 716.208,443.48 709.208,447.98 703.5,454.5C 692.068,441.303 677.734,436.803 660.5,441C 651.4,443.287 644.066,448.12 638.5,455.5C 634.989,452.488 631.656,449.322 628.5,446C 624.469,443.545 620.136,441.879 615.5,441C 598.128,437.037 583.961,441.87 573,455.5C 558.453,439.506 541.287,436.006 521.5,445C 518.997,446.784 518.997,448.451 521.5,450C 519.741,451.008 518.574,452.508 518,454.5C 515.978,455.991 514.312,455.658 513,453.5C 512.414,456.019 511.247,458.019 509.5,459.5C 509.925,454.65 511.925,450.65 515.5,447.5C 522.309,440.668 530.642,437.335 540.5,437.5C 546.009,437.64 551.342,438.64 556.5,440.5C 557.167,440.167 557.833,439.833 558.5,439.5C 560.076,442.179 562.743,444.345 566.5,446C 568.709,447.873 570.542,450.04 572,452.5C 573.634,450.938 575.134,449.271 576.5,447.5 Z"/></g>
<g><path style="opacity:0.016" fill="#32e8fc" d="M 194.5,440.5 C 193.761,440.631 193.094,440.464 192.5,440C 193.437,439.308 194.103,439.475 194.5,440.5 Z"/></g>
<g><path style="opacity:0.008" fill="#32ecfb" d="M 228.5,440.5 C 228.897,439.475 229.563,439.308 230.5,440C 229.906,440.464 229.239,440.631 228.5,440.5 Z"/></g>
<g><path style="opacity:0.004" fill="#35ecfc" d="M 380.5,440.5 C 379.833,439.167 379.833,439.167 380.5,440.5 Z"/></g>
<g><path style="opacity:0.008" fill="#418b98" d="M 511.5,439.5 C 512.833,440.167 512.833,440.167 511.5,439.5 Z"/></g>
<g><path style="opacity:0.004" fill="#2b2d2e" d="M 585.5,439.5 C 586.833,440.167 586.833,440.167 585.5,439.5 Z"/></g>
<g><path style="opacity:0.012" fill="#282729" d="M 690.5,439.5 C 691.833,440.167 691.833,440.167 690.5,439.5 Z"/></g>
<g><path style="opacity:0.998" fill="#1c1a1a" d="M 751.5,438.5 C 753.415,438.216 755.081,438.549 756.5,439.5C 755.127,439.343 753.793,439.51 752.5,440C 771.473,444.306 781.973,456.14 784,475.5C 785.997,489.491 787.997,503.491 790,517.5C 790.498,514.518 790.665,511.518 790.5,508.5C 790.833,508.5 791.167,508.5 791.5,508.5C 792.323,511.977 792.823,515.644 793,519.5C 793.167,516 793.333,512.5 793.5,509C 792.539,494.174 792.373,479.34 793,464.5C 798.083,447.524 809.583,439.191 827.5,439.5C 830.794,439.725 833.961,440.392 837,441.5C 837.717,440.956 838.217,440.289 838.5,439.5C 843.46,441.313 848.127,443.647 852.5,446.5C 854.871,445.653 856.871,444.32 858.5,442.5C 860.679,442.16 862.512,441.16 864,439.5C 864.986,440.171 866.153,440.171 867.5,439.5C 896.33,440.332 925.33,440.832 954.5,441C 967.36,443.33 976.193,450.496 981,462.5C 987.21,488.763 977.21,504.763 951,510.5C 950.667,550.833 950.333,591.167 950,631.5C 947.356,645.476 939.189,654.31 925.5,658C 918.833,658.667 912.167,658.667 905.5,658C 899.564,656.702 894.564,653.869 890.5,649.5C 884.662,654.251 877.996,657.085 870.5,658C 853.5,658.667 836.5,658.667 819.5,658C 813.594,657.212 808.26,655.046 803.5,651.5C 788.82,661.376 773.82,661.876 758.5,653C 754.908,650.079 752.075,646.579 750,642.5C 748.584,636.746 746.917,631.079 745,625.5C 742.905,623.95 740.738,623.617 738.5,624.5C 739.602,625.176 740.602,625.842 741.5,626.5C 740.448,626.351 739.448,626.517 738.5,627C 739.696,627.654 739.696,628.154 738.5,628.5C 737.572,626.665 736.406,626.332 735,627.5C 733.585,634.497 731.252,641.164 728,647.5C 722.489,655.178 714.989,659.678 705.5,661C 697.735,661.805 690.068,661.305 682.5,659.5C 681.833,658.167 681.167,658.167 680.5,659.5C 678.178,657.336 675.511,655.669 672.5,654.5C 672.167,653.167 671.833,653.167 671.5,654.5C 670.571,653.064 669.405,651.731 668,650.5C 663.498,655.337 657.998,658.503 651.5,660C 643.028,661.469 634.695,661.969 626.5,661.5C 624.493,662.679 624.16,662.179 625.5,660C 617.136,657.402 609.969,652.902 604,646.5C 594.982,657.296 583.316,662.296 569,661.5C 564.481,661.303 559.981,660.97 555.5,660.5C 549.953,658.393 544.62,655.727 539.5,652.5C 539.167,651.5 538.5,650.833 537.5,650.5C 537.5,649.833 537.167,649.5 536.5,649.5C 534.804,647.475 533.137,645.475 531.5,643.5C 531.672,642.508 531.338,641.842 530.5,641.5C 529.071,634.663 527.405,627.997 525.5,621.5C 525.833,620.833 526.167,620.167 526.5,619.5C 526.784,617.585 526.451,615.919 525.5,614.5C 525.5,613.833 525.167,613.5 524.5,613.5C 522.344,595.232 519.344,577.232 515.5,559.5C 513.167,544.166 510.833,528.832 508.5,513.5C 508.5,512.833 508.5,512.167 508.5,511.5C 509.801,508.899 511.134,506.232 512.5,503.5C 515.048,499.07 517.048,494.403 518.5,489.5C 519.239,489.369 519.906,489.536 520.5,490C 520.93,490.92 521.264,491.753 521.5,492.5C 522.624,487.279 523.458,487.279 524,492.5C 531.775,536.147 539.441,579.814 547,623.5C 548.091,630.923 551.925,636.423 558.5,640C 567.935,642.624 576.935,641.624 585.5,637C 587.452,634.926 589.285,632.759 591,630.5C 595.053,604.464 599.386,578.464 604,552.5C 608.819,579.263 614.153,605.93 620,632.5C 622.087,636.302 625.254,638.802 629.5,640C 640.411,643.421 649.911,641.254 658,633.5C 658.667,631.5 659.333,629.5 660,627.5C 669.243,578.033 678.91,528.7 689,479.5C 690.339,463.174 682.839,456.007 666.5,458C 661.355,458.907 657.688,461.741 655.5,466.5C 649.6,500.636 643.933,534.802 638.5,569C 638.836,570.03 639.503,570.53 640.5,570.5C 640.198,573.373 639.531,576.039 638.5,578.5C 633.716,542.409 628.216,506.409 622,470.5C 619.435,461.54 613.435,457.207 604,457.5C 595.041,458.123 589.374,462.789 587,471.5C 581.699,506.634 576.199,541.634 570.5,576.5C 567.265,560.752 564.598,545.086 562.5,529.5C 560.335,515.544 558.001,501.377 555.5,487C 555.325,485.342 554.658,484.009 553.5,483C 555.223,462.718 546.557,456.051 527.5,463C 523.356,467.667 522.689,472.667 525.5,478C 524.577,480.041 524.244,482.208 524.5,484.5C 523.883,484.389 523.383,484.056 523,483.5C 522.828,478.798 522.328,474.132 521.5,469.5C 519.869,467.941 519.036,465.941 519,463.5C 518.005,464.066 517.172,464.733 516.5,465.5C 515.441,463.445 513.775,462.111 511.5,461.5C 511.5,460.833 511.167,460.5 510.5,460.5C 509.833,460.5 509.5,460.167 509.5,459.5C 511.247,458.019 512.414,456.019 513,453.5C 514.312,455.658 515.978,455.991 518,454.5C 518.574,452.508 519.741,451.008 521.5,450C 518.997,448.451 518.997,446.784 521.5,445C 541.287,436.006 558.453,439.506 573,455.5C 583.961,441.87 598.128,437.037 615.5,441C 620.136,441.879 624.469,443.545 628.5,446C 631.656,449.322 634.989,452.488 638.5,455.5C 644.066,448.12 651.4,443.287 660.5,441C 677.734,436.803 692.068,441.303 703.5,454.5C 709.208,447.98 716.208,443.48 724.5,441C 733.889,441.144 742.889,440.31 751.5,438.5 Z M 824.5,460.5 C 825.105,462.481 826.105,462.815 827.5,461.5C 828.097,460.861 828.93,460.528 830,460.5C 831.699,460.387 832.866,461.053 833.5,462.5C 832.167,462.833 832.167,463.167 833.5,463.5C 833.5,464.167 833.833,464.5 834.5,464.5C 835.271,467.332 835.938,467.665 836.5,465.5C 837.927,467.148 838.76,469.148 839,471.5C 839.167,515.669 839.667,559.669 840.5,603.5C 840.5,603.833 840.5,604.167 840.5,604.5C 842.262,606.7 844.596,607.867 847.5,608C 856.676,608.17 865.676,608.67 874.5,609.5C 876.833,609.833 878.167,611.167 878.5,613.5C 878.833,613.5 879.167,613.5 879.5,613.5C 879.666,619.176 879.499,624.843 879,630.5C 877.612,633.945 875.112,636.111 871.5,637C 855.167,637.667 838.833,637.667 822.5,637C 817.765,635.932 814.598,633.099 813,628.5C 812.782,625.574 812.282,622.74 811.5,620C 812.002,571.511 812.002,523.011 811.5,474.5C 812.344,471.655 813.01,468.655 813.5,465.5C 816.245,461.963 819.912,460.296 824.5,460.5 Z M 876.5,460.5 C 883.175,460.334 889.842,460.5 896.5,461C 895.5,461.333 894.5,461.667 893.5,462C 898.5,462.667 903.5,462.667 908.5,462C 904.833,461.667 901.167,461.333 897.5,461C 910.5,460.333 923.5,460.333 936.5,461C 935.833,461.333 935.167,461.667 934.5,462C 939.5,462.667 944.5,462.667 949.5,462C 945.774,460.957 946.107,460.457 950.5,460.5C 954.117,461.642 957.45,463.308 960.5,465.5C 961.853,468.142 962.519,470.976 962.5,474C 962.664,476.544 961.997,478.71 960.5,480.5C 959.781,482.888 958.115,484.388 955.5,485C 951.312,485.176 947.312,485.676 943.5,486.5C 938.173,484.897 934.173,486.897 931.5,492.5C 930.668,512.996 930.168,533.663 930,554.5C 929.667,534.5 929.333,514.5 929,494.5C 928.333,531.5 928.333,568.5 929,605.5C 929.333,588.833 929.667,572.167 930,555.5C 930.5,579.498 930.667,603.498 930.5,627.5C 930.5,628.167 930.5,628.833 930.5,629.5C 929.833,630.5 929.167,631.5 928.5,632.5C 923.776,638.016 917.776,639.85 910.5,638C 909.263,637.768 908.263,637.268 907.5,636.5C 903.048,633.854 901.048,629.854 901.5,624.5C 902.833,624.167 902.833,623.833 901.5,623.5C 901.433,584.339 901.433,545.006 901.5,505.5C 900.79,501.196 900.29,496.863 900,492.5C 898.935,489.848 897.102,488.015 894.5,487C 885.217,485.813 875.883,485.147 866.5,485C 866,484.5 865.5,484 865,483.5C 860.633,470.885 864.466,463.218 876.5,460.5 Z M 833.5,463.5 C 833.5,463.167 833.5,462.833 833.5,462.5C 834.833,462.5 835.5,463.167 835.5,464.5C 835.167,464.5 834.833,464.5 834.5,464.5C 833.833,464.5 833.5,464.167 833.5,463.5 Z M 757.5,466.5 C 759.915,467.982 760.582,469.982 759.5,472.5C 759.846,473.696 760.346,473.696 761,472.5C 762.286,477.096 763.119,481.763 763.5,486.5C 765.926,493.884 767.593,501.551 768.5,509.5C 770.246,513.889 771.246,518.556 771.5,523.5C 776.418,542.341 780.752,562.341 784.5,583.5C 786.102,587.921 787.102,592.588 787.5,597.5C 790.373,606.524 792.373,615.857 793.5,625.5C 794.152,626.449 794.486,627.615 794.5,629C 794.693,631.008 794.026,632.508 792.5,633.5C 791.101,636.39 788.768,637.89 785.5,638C 780.291,638.866 775.291,638.199 770.5,636C 768.396,633.958 767.229,631.458 767,628.5C 765.592,624.173 765.259,619.84 766,615.5C 765.667,615.833 765.333,616.167 765,616.5C 764.722,609.056 760.889,605.056 753.5,604.5C 745.119,604.913 736.953,604.913 729,604.5C 723.867,604.07 719.367,605.404 715.5,608.5C 713.681,615.745 712.181,623.078 711,630.5C 710.392,632.066 709.558,633.4 708.5,634.5C 707.657,636.173 706.324,637.34 704.5,638C 699.411,638.826 694.411,638.492 689.5,637C 687.859,635.871 686.859,634.371 686.5,632.5C 685.371,630.372 685.204,628.039 686,625.5C 697.002,573.493 708.002,521.493 719,469.5C 719.697,467.416 720.864,465.749 722.5,464.5C 724.09,462.766 726.09,461.6 728.5,461C 736.831,458.932 744.831,459.266 752.5,462C 750.405,462.556 750.238,463.056 752,463.5C 752.772,463.355 753.439,463.022 754,462.5C 755.627,463.532 756.793,464.866 757.5,466.5 Z M 788.5,473.5 C 787.952,479.282 788.618,485.115 790.5,491C 790.501,494.301 790.334,497.801 790,501.5C 788.711,492.82 787.711,484.154 787,475.5C 787.333,476.167 787.667,476.833 788,477.5C 788.49,476.207 788.657,474.873 788.5,473.5 Z M 866.5,509.5 C 873.531,509.519 873.864,510.019 867.5,511C 870.047,511.66 872.547,511.493 875,510.5C 877.579,512.088 878.913,514.422 879,517.5C 879.667,537.5 879.667,557.5 879,577.5C 878.837,579.676 878.004,581.509 876.5,583C 872.029,584.789 867.696,584.622 863.5,582.5C 862.218,580.821 861.218,578.987 860.5,577C 860.805,557.465 860.805,537.798 860.5,518C 860.936,513.93 862.936,511.096 866.5,509.5 Z"/></g>
<g><path style="opacity:0.012" fill="#262425" d="M 843.5,439.5 C 844.833,440.167 844.833,440.167 843.5,439.5 Z"/></g>
<g><path style="opacity:0.004" fill="#2b2c2e" d="M 577.5,440.5 C 578.833,441.167 578.833,441.167 577.5,440.5 Z"/></g>
<g><path style="opacity:0.004" fill="#2b2c2b" d="M 965.5,440.5 C 966.833,441.167 966.833,441.167 965.5,440.5 Z"/></g>
<g><path style="opacity:0.004" fill="#282826" d="M 694.5,441.5 C 695.833,442.167 695.833,442.167 694.5,441.5 Z"/></g>
<g><path style="opacity:0.016" fill="#272626" d="M 711.5,441.5 C 712.833,442.167 712.833,442.167 711.5,441.5 Z"/></g>
<g><path style="opacity:0.004" fill="#282928" d="M 858.5,442.5 C 857.833,441.167 857.833,441.167 858.5,442.5 Z"/></g>
<g><path style="opacity:0.004" fill="#2e2f2d" d="M 969.5,442.5 C 970.833,443.167 970.833,443.167 969.5,442.5 Z"/></g>
<g><path style="opacity:0.016" fill="#292726" d="M 851.5,444.5 C 852.833,445.167 852.833,445.167 851.5,444.5 Z"/></g>
<g><path style="opacity:0.004" fill="#2f302f" d="M 971.5,444.5 C 972.833,445.167 972.833,445.167 971.5,444.5 Z"/></g>
<g><path style="opacity:0.004" fill="#3ee6f6" d="M 83.5,445.5 C 84.8333,446.167 84.8333,446.167 83.5,445.5 Z"/></g>
<g><path style="opacity:0.012" fill="#3d7d87" d="M 513.5,445.5 C 514.833,446.167 514.833,446.167 513.5,445.5 Z"/></g>
<g><path style="opacity:0.004" fill="#262929" d="M 576.5,447.5 C 575.833,446.167 575.833,446.167 576.5,447.5 Z"/></g>
<g><path style="opacity:0.004" fill="#3be6f5" d="M 82.5,448.5 C 81.8333,447.167 81.8333,447.167 82.5,448.5 Z"/></g>
<g><path style="opacity:0.004" fill="#36e9fc" d="M 144.5,447.5 C 145.833,448.167 145.833,448.167 144.5,447.5 Z"/></g>
<g><path style="opacity:0.004" fill="#2a2c2c" d="M 571.5,447.5 C 572.833,448.167 572.833,448.167 571.5,447.5 Z"/></g>
<g><path style="opacity:0.016" fill="#2a2b2a" d="M 573.5,447.5 C 574.833,448.167 574.833,448.167 573.5,447.5 Z"/></g>
<g><path style="opacity:0.008" fill="#272627" d="M 701.5,447.5 C 702.833,448.167 702.833,448.167 701.5,447.5 Z"/></g>
<g><path style="opacity:0.012" fill="#292929" d="M 705.5,448.5 C 704.833,447.167 704.833,447.167 705.5,448.5 Z"/></g>
<g><path style="opacity:0.006" fill="#30ebfb" d="M 246.5,449.5 C 245.761,449.631 245.094,449.464 244.5,449C 245.437,448.308 246.103,448.475 246.5,449.5 Z"/></g>
<g><path style="opacity:0.004" fill="#37e6f6" d="M 455.5,450.5 C 456.833,451.167 456.833,451.167 455.5,450.5 Z"/></g>
<g><path style="opacity:0.984" fill="#121111" d="M 971.5,445.5 C 975.525,448.558 978.858,452.225 981.5,456.5C 988.6,473.379 986.266,488.713 974.5,502.5C 972.611,503.604 970.945,504.937 969.5,506.5C 964.021,508.77 958.355,510.437 952.5,511.5C 952.911,550.079 953.245,587.579 953.5,624C 952.713,640.432 945.047,652.265 930.5,659.5C 923.257,661.032 915.924,661.698 908.5,661.5C 906.095,660.232 903.428,659.565 900.5,659.5C 899.486,658.326 898.153,657.66 896.5,657.5C 894.492,655.732 892.326,654.066 890,652.5C 884.38,656.027 878.714,659.361 873,662.5C 871.647,661.296 869.981,660.629 868,660.5C 863.926,661.473 859.926,661.473 856,660.5C 854.698,661.085 853.531,661.751 852.5,662.5C 851.469,661.645 850.303,660.978 849,660.5C 838.476,661.303 827.976,661.303 817.5,660.5C 815.401,659.388 813.067,658.721 810.5,658.5C 808.481,657.067 806.314,655.733 804,654.5C 790.759,662.067 776.925,663.4 762.5,658.5C 752.65,652.977 746.65,644.644 744.5,633.5C 744.834,630.509 743.834,628.176 741.5,626.5C 740.602,625.842 739.602,625.176 738.5,624.5C 740.738,623.617 742.905,623.95 745,625.5C 746.917,631.079 748.584,636.746 750,642.5C 752.075,646.579 754.908,650.079 758.5,653C 773.82,661.876 788.82,661.376 803.5,651.5C 808.26,655.046 813.594,657.212 819.5,658C 836.5,658.667 853.5,658.667 870.5,658C 877.996,657.085 884.662,654.251 890.5,649.5C 894.564,653.869 899.564,656.702 905.5,658C 912.167,658.667 918.833,658.667 925.5,658C 939.189,654.31 947.356,645.476 950,631.5C 950.333,591.167 950.667,550.833 951,510.5C 977.21,504.763 987.21,488.763 981,462.5C 976.193,450.496 967.36,443.33 954.5,441C 925.33,440.832 896.33,440.332 867.5,439.5C 872.055,438.373 876.722,437.706 881.5,437.5C 903.195,437.544 925.195,437.71 947.5,438C 956.298,438.056 964.298,440.556 971.5,445.5 Z"/></g>
<g><path style="opacity:0.008" fill="#2d2e2d" d="M 981.5,455.5 C 982.833,456.167 982.833,456.167 981.5,455.5 Z"/></g>
<g><path style="opacity:0.986" fill="#111011" d="M 838.5,439.5 C 838.217,440.289 837.717,440.956 837,441.5C 833.961,440.392 830.794,439.725 827.5,439.5C 809.583,439.191 798.083,447.524 793,464.5C 792.373,479.34 792.539,494.174 793.5,509C 793.333,512.5 793.167,516 793,519.5C 792.823,515.644 792.323,511.977 791.5,508.5C 791.167,505.833 790.833,505.833 790.5,508.5C 790.665,511.518 790.498,514.518 790,517.5C 787.997,503.491 785.997,489.491 784,475.5C 781.973,456.14 771.473,444.306 752.5,440C 753.793,439.51 755.127,439.343 756.5,439.5C 758.5,439.833 760.5,440.167 762.5,440.5C 776.263,447.655 784.43,458.989 787,474.5C 786.383,472.905 786.716,471.572 788,470.5C 788.333,471.167 788.667,471.833 789,472.5C 789.979,467.105 791.145,461.772 792.5,456.5C 794.164,453.841 795.83,451.175 797.5,448.5C 801.272,445.377 805.272,442.711 809.5,440.5C 817.198,438.25 825.031,436.916 833,436.5C 834.649,437.953 836.482,438.953 838.5,439.5 Z M 788.5,473.5 C 788.657,474.873 788.49,476.207 788,477.5C 787.667,476.833 787.333,476.167 787,475.5C 787.711,484.154 788.711,492.82 790,501.5C 790.334,497.801 790.501,494.301 790.5,491C 788.618,485.115 787.952,479.282 788.5,473.5 Z"/></g>
<g><path style="opacity:0.012" fill="#282727" d="M 792.5,456.5 C 791.833,455.167 791.833,455.167 792.5,456.5 Z"/></g>
<g><path style="opacity:0.004" fill="#282927" d="M 781.5,455.5 C 782.833,456.167 782.833,456.167 781.5,455.5 Z"/></g>
<g><path style="opacity:0.008" fill="#292727" d="M 791.5,449.5 C 792.833,450.167 792.833,450.167 791.5,449.5 Z"/></g>
<g><path style="opacity:0.004" fill="#2a2627" d="M 797.5,448.5 C 796.833,447.167 796.833,447.167 797.5,448.5 Z"/></g>
<g><path style="opacity:0.008" fill="#2c2a2c" d="M 809.5,440.5 C 808.761,440.631 808.094,440.464 807.5,440C 808.437,439.308 809.103,439.475 809.5,440.5 Z"/></g>
<g><path style="opacity:0.006" fill="#272626" d="M 762.5,440.5 C 762.897,439.475 763.563,439.308 764.5,440C 763.906,440.464 763.239,440.631 762.5,440.5 Z"/></g>
<g><path style="opacity:0.004" fill="#35eafb" d="M 170.5,463.5 C 171.833,464.167 171.833,464.167 170.5,463.5 Z"/></g>
<g><path style="opacity:0.978" fill="#070607" d="M 840.5,603.5 C 839.667,559.669 839.167,515.669 839,471.5C 838.76,469.148 837.927,467.148 836.5,465.5C 836.5,464.833 836.167,464.5 835.5,464.5C 835.5,463.167 834.833,462.5 833.5,462.5C 832.866,461.053 831.699,460.387 830,460.5C 828.93,460.528 828.097,460.861 827.5,461.5C 826.105,462.815 825.105,462.481 824.5,460.5C 819.912,460.296 816.245,461.963 813.5,465.5C 812.974,462.192 814.307,460.026 817.5,459C 829.701,454.518 837.535,458.351 841,470.5C 841.169,514.404 841.669,558.238 842.5,602C 841.956,602.717 841.289,603.217 840.5,603.5 Z M 833.5,463.5 C 833.5,463.167 833.5,462.833 833.5,462.5C 834.833,462.5 835.5,463.167 835.5,464.5C 835.167,464.5 834.833,464.5 834.5,464.5C 833.833,464.5 833.5,464.167 833.5,463.5 Z"/></g>
<g><path style="opacity:0.999" fill="#1bb6d1" d="M 510.5,460.5 C 511.167,460.5 511.5,460.833 511.5,461.5C 511.335,464.518 511.502,467.518 512,470.5C 513.306,474.718 514.472,479.051 515.5,483.5C 514.963,487.829 514.463,492.162 514,496.5C 513.626,498.491 512.793,500.158 511.5,501.5C 512.439,490.172 511.605,478.839 509,467.5C 508.667,467.833 508.333,468.167 508,468.5C 507.623,467.058 506.79,466.058 505.5,465.5C 506.046,463.697 506.88,462.03 508,460.5C 508.915,461.328 509.581,462.328 510,463.5C 510.483,462.552 510.649,461.552 510.5,460.5 Z"/></g>
<g><path style="opacity:0.004" fill="#292726" d="M 785.5,464.5 C 786.833,465.167 786.833,465.167 785.5,464.5 Z"/></g>
<g><path style="opacity:0.008" fill="#272526" d="M 788.5,464.5 C 789.525,464.897 789.692,465.563 789,466.5C 788.536,465.906 788.369,465.239 788.5,464.5 Z"/></g>
<g><path style="opacity:0.004" fill="#272626" d="M 786.5,466.5 C 787.833,467.167 787.833,467.167 786.5,466.5 Z"/></g>
<g><path style="opacity:0.99" fill="#121111" d="M 729.5,457.5 C 738.016,456.885 746.349,457.718 754.5,460C 758.755,463.266 761.922,467.432 764,472.5C 775.061,525.204 786.228,577.871 797.5,630.5C 796.033,635.133 793.033,638.3 788.5,640C 783.833,640.667 779.167,640.667 774.5,640C 768.463,638.134 765.129,633.967 764.5,627.5C 763.451,622.538 762.617,617.538 762,612.5C 761.426,610.508 760.259,609.008 758.5,608C 745.072,607.038 731.739,607.371 718.5,609C 716.391,617.461 714.224,625.961 712,634.5C 708.796,639.607 704.129,641.94 698,641.5C 686.551,640.722 681.884,634.722 684,623.5C 694.46,573.534 704.793,523.534 715,473.5C 716.974,465.368 721.808,460.034 729.5,457.5 Z M 757.5,466.5 C 759.915,467.982 760.582,469.982 759.5,472.5C 759.846,473.696 760.346,473.696 761,472.5C 762.286,477.096 763.119,481.763 763.5,486.5C 765.926,493.884 767.593,501.551 768.5,509.5C 770.246,513.889 771.246,518.556 771.5,523.5C 776.418,542.341 780.752,562.341 784.5,583.5C 786.102,587.921 787.102,592.588 787.5,597.5C 790.373,606.524 792.373,615.857 793.5,625.5C 794.152,626.449 794.486,627.615 794.5,629C 794.693,631.008 794.026,632.508 792.5,633.5C 791.101,636.39 788.768,637.89 785.5,638C 780.291,638.866 775.291,638.199 770.5,636C 768.396,633.958 767.229,631.458 767,628.5C 765.592,624.173 765.259,619.84 766,615.5C 765.667,615.833 765.333,616.167 765,616.5C 764.722,609.056 760.889,605.056 753.5,604.5C 745.119,604.913 736.953,604.913 729,604.5C 723.867,604.07 719.367,605.404 715.5,608.5C 713.681,615.745 712.181,623.078 711,630.5C 710.392,632.066 709.558,633.4 708.5,634.5C 707.657,636.173 706.324,637.34 704.5,638C 699.411,638.826 694.411,638.492 689.5,637C 687.859,635.871 686.859,634.371 686.5,632.5C 685.371,630.372 685.204,628.039 686,625.5C 697.002,573.493 708.002,521.493 719,469.5C 719.697,467.416 720.864,465.749 722.5,464.5C 724.09,462.766 726.09,461.6 728.5,461C 736.831,458.932 744.831,459.266 752.5,462C 750.405,462.556 750.238,463.056 752,463.5C 752.772,463.355 753.439,463.022 754,462.5C 755.627,463.532 756.793,464.866 757.5,466.5 Z"/></g>
<g><path style="opacity:0.977" fill="#0f0e0f" d="M 811.5,474.5 C 812.002,523.011 812.002,571.511 811.5,620C 812.282,622.74 812.782,625.574 813,628.5C 814.598,633.099 817.765,635.932 822.5,637C 838.833,637.667 855.167,637.667 871.5,637C 875.112,636.111 877.612,633.945 879,630.5C 879.499,624.843 879.666,619.176 879.5,613.5C 880.248,611.265 881.081,611.598 882,614.5C 882.789,620.237 882.456,625.903 881,631.5C 879.73,635.77 876.896,638.27 872.5,639C 856.888,640.603 841.221,640.937 825.5,640C 817.644,639.142 812.478,634.975 810,627.5C 809.333,574.5 809.333,521.5 810,468.5C 810.333,467.833 810.667,467.167 811,466.5C 811.497,469.146 811.664,471.813 811.5,474.5 Z"/></g>
<g><path style="opacity:0.997" fill="#2beafe" d="M 273.5,466.5 C 296.889,467.669 320.722,467.669 345,466.5C 353.497,467.475 356.497,472.142 354,480.5C 353.375,483.612 351.542,485.445 348.5,486C 327.5,486.333 306.5,486.667 285.5,487C 285,487.5 284.5,488 284,488.5C 282.745,505.48 282.745,522.48 284,539.5C 284.5,540 285,540.5 285.5,541C 304.5,541.333 323.5,541.667 342.5,542C 348.18,546.216 349.347,551.383 346,557.5C 345.097,558.701 343.931,559.535 342.5,560C 324.167,560.333 305.833,560.667 287.5,561C 286.376,561.249 285.376,561.749 284.5,562.5C 283.349,578.456 283.182,594.456 284,610.5C 284.5,611 285,611.5 285.5,612C 306.833,612.333 328.167,612.667 349.5,613C 355.749,616.899 356.915,622.066 353,628.5C 352.097,629.701 350.931,630.535 349.5,631C 323.167,631.667 296.833,631.667 270.5,631C 268.448,630.07 266.948,628.57 266,626.5C 265.599,621.989 265.099,617.489 264.5,613C 265.691,567.978 265.691,523.144 264.5,478.5C 264.603,472.092 267.603,468.092 273.5,466.5 Z"/></g>
<g><path style="opacity:0.998" fill="#2be9fe" d="M 118.5,467.5 C 119.508,469.339 121.008,470.672 123,471.5C 135.022,493.556 147.522,515.223 160.5,536.5C 173.389,559.941 186.556,583.274 200,606.5C 200.333,562.167 200.667,517.833 201,473.5C 206.305,464.826 211.971,464.492 218,472.5C 218.658,474.8 219.158,477.133 219.5,479.5C 218.366,523.968 218.366,568.801 219.5,614C 218.587,628.921 210.921,634.588 196.5,631C 193.898,630.117 191.731,628.617 190,626.5C 173.059,596.939 155.892,567.606 138.5,538.5C 132.67,526.836 126.337,515.502 119.5,504.5C 119.167,501.833 118.833,501.833 118.5,504.5C 117.732,503.737 117.232,502.737 117,501.5C 116.833,503.833 116.667,506.167 116.5,508.5C 116.976,511.83 116.976,514.997 116.5,518C 117.167,519 117.833,520 118.5,521C 117.351,522.73 117.351,524.396 118.5,526C 117.426,526.739 116.759,527.739 116.5,529C 116.872,532.685 117.206,536.352 117.5,540C 116.833,541 116.167,542 115.5,543C 116.944,544.126 117.61,545.626 117.5,547.5C 116.927,553.593 116.927,559.593 117.5,565.5C 116.833,565.833 116.167,566.167 115.5,566.5C 116.14,571.032 116.806,575.532 117.5,580C 115.923,582.957 116.256,585.624 118.5,588C 117.196,588.804 116.529,589.971 116.5,591.5C 117.511,595.306 117.511,599.139 116.5,603C 116.781,606.739 117.448,610.405 118.5,614C 118.095,614.945 117.428,615.612 116.5,616C 116.833,616.333 117.167,616.667 117.5,617C 116.712,620.076 116.212,623.242 116,626.5C 110.647,631.626 105.814,631.126 101.5,625C 100.84,575.027 100.173,525.194 99.5,475.5C 101.17,469.641 105.17,466.641 111.5,466.5C 113.818,466.997 116.152,467.33 118.5,467.5 Z"/></g>
<g><path style="opacity:0.992" fill="#121111" d="M 638.5,578.5 C 638.607,580.379 638.107,580.712 637,579.5C 630.952,542.548 624.952,505.881 619,469.5C 618.484,466.966 617.317,464.8 615.5,463C 611.112,460.589 606.445,459.589 601.5,460C 602.711,460.893 602.711,461.726 601.5,462.5C 599.748,460.123 597.748,459.956 595.5,462C 592.894,463.938 591.061,466.438 590,469.5C 584.108,507.184 578.108,544.85 572,582.5C 571.5,582 571,581.5 570.5,581C 570.966,579.701 570.966,578.201 570.5,576.5C 576.199,541.634 581.699,506.634 587,471.5C 589.374,462.789 595.041,458.123 604,457.5C 613.435,457.207 619.435,461.54 622,470.5C 628.216,506.409 633.716,542.409 638.5,578.5 Z"/></g>
<g><path style="opacity:0.997" fill="#2ceafe" d="M 398.5,466.5 C 403.911,465.956 408.078,467.956 411,472.5C 421.667,491.833 432.333,511.167 443,530.5C 455.167,510.167 467.333,489.833 479.5,469.5C 484.647,465.329 489.48,465.662 494,470.5C 495.422,473.03 495.755,475.697 495,478.5C 481.619,502.098 468.119,525.598 454.5,549C 467.867,572.233 481.367,595.399 495,618.5C 497.547,626.403 494.714,631.07 486.5,632.5C 484.189,631.786 482.022,630.786 480,629.5C 468.337,608.836 456.17,588.502 443.5,568.5C 431.26,587.891 419.093,607.891 407,628.5C 402.314,633.302 397.314,633.636 392,629.5C 389.849,623.88 390.516,618.547 394,613.5C 406.456,592.084 419.29,570.917 432.5,550C 420.061,526.956 407.227,504.123 394,481.5C 390.897,474.861 392.397,469.861 398.5,466.5 Z"/></g>
<g><path style="opacity:0.004" fill="#36eefd" d="M 443.5,470.5 C 444.833,471.167 444.833,471.167 443.5,470.5 Z"/></g>
<g><path style="opacity:0.995" fill="#21dcf0" d="M 511.5,461.5 C 513.775,462.111 515.441,463.445 516.5,465.5C 520.869,473.191 521.536,481.191 518.5,489.5C 517.048,494.403 515.048,499.07 512.5,503.5C 511.662,503.158 511.328,502.492 511.5,501.5C 512.793,500.158 513.626,498.491 514,496.5C 514.463,492.162 514.963,487.829 515.5,483.5C 514.472,479.051 513.306,474.718 512,470.5C 511.502,467.518 511.335,464.518 511.5,461.5 Z"/></g>
<g><path style="opacity:0.004" fill="#3be7f6" d="M 67.5,478.5 C 68.8333,479.167 68.8333,479.167 67.5,478.5 Z"/></g>
<g><path style="opacity:0.995" fill="#199eb9" d="M 505.5,465.5 C 506.79,466.058 507.623,467.058 508,468.5C 508.333,468.167 508.667,467.833 509,467.5C 511.605,478.839 512.439,490.172 511.5,501.5C 511.328,502.492 511.662,503.158 512.5,503.5C 511.134,506.232 509.801,508.899 508.5,511.5C 506.505,500.779 505.172,490.112 504.5,479.5C 504.5,476.167 504.5,472.833 504.5,469.5C 505.234,468.292 505.567,466.959 505.5,465.5 Z"/></g>
<g><path style="opacity:0.008" fill="#282625" d="M 761.5,482.5 C 759.354,482.304 759.188,481.304 761,479.5C 761.483,480.448 761.649,481.448 761.5,482.5 Z"/></g>
<g><path style="opacity:0.008" fill="#3ce6f5" d="M 67.5,486.5 C 68.8333,487.167 68.8333,487.167 67.5,486.5 Z"/></g>
<g><path style="opacity:0.999" fill="#060505" d="M 943.5,486.5 C 947.514,486.334 951.514,486.501 955.5,487C 949.581,488.196 943.581,488.862 937.5,489C 936.069,489.465 934.903,490.299 934,491.5C 933.667,535.833 933.333,580.167 933,624.5C 932.882,627.371 932.216,630.038 931,632.5C 930.517,631.552 930.351,630.552 930.5,629.5C 930.5,628.833 930.5,628.167 930.5,627.5C 931.499,582.67 931.832,537.67 931.5,492.5C 934.173,486.897 938.173,484.897 943.5,486.5 Z"/></g>
<g><path style="opacity:0.004" fill="#3ce7f8" d="M 67.5,494.5 C 68.8333,495.167 68.8333,495.167 67.5,494.5 Z"/></g>
<g><path style="opacity:0.99" fill="#100f10" d="M 960.5,465.5 C 957.45,463.308 954.117,461.642 950.5,460.5C 925.833,459.167 901.167,459.167 876.5,460.5C 864.466,463.218 860.633,470.885 865,483.5C 865.5,484 866,484.5 866.5,485C 875.883,485.147 885.217,485.813 894.5,487C 897.102,488.015 898.935,489.848 900,492.5C 900.29,496.863 900.79,501.196 901.5,505.5C 901.433,545.006 901.433,584.339 901.5,623.5C 900.835,625.369 900.169,627.369 899.5,629.5C 898.667,584.17 898.167,538.837 898,493.5C 897.167,491.333 895.667,489.833 893.5,489C 885.167,488.667 876.833,488.333 868.5,488C 860.788,483.532 858.621,477.032 862,468.5C 863.927,463.572 867.427,460.406 872.5,459C 899.167,458.333 925.833,458.333 952.5,459C 955.952,459.892 958.952,461.558 961.5,464C 960.944,464.383 960.611,464.883 960.5,465.5 Z"/></g>
<g><path style="opacity:0.198" fill="#2c2b2c" d="M 876.5,460.5 C 901.167,459.167 925.833,459.167 950.5,460.5C 946.107,460.457 945.774,460.957 949.5,462C 944.5,462.667 939.5,462.667 934.5,462C 935.167,461.667 935.833,461.333 936.5,461C 923.5,460.333 910.5,460.333 897.5,461C 901.167,461.333 904.833,461.667 908.5,462C 903.5,462.667 898.5,462.667 893.5,462C 894.5,461.667 895.5,461.333 896.5,461C 889.842,460.5 883.175,460.334 876.5,460.5 Z"/></g>
<g><path style="opacity:0.004" fill="#2c2b2b" d="M 981.5,495.5 C 982.833,496.167 982.833,496.167 981.5,495.5 Z"/></g>
<g><path style="opacity:0.006" fill="#282726" d="M 736.5,500.5 C 736.343,499.127 736.51,497.793 737,496.5C 738.534,497.881 738.368,499.214 736.5,500.5 Z"/></g>
<g><path style="opacity:0.012" fill="#292a29" d="M 974.5,502.5 C 975.833,503.167 975.833,503.167 974.5,502.5 Z"/></g>
<g><path style="opacity:0.012" fill="#2a292a" d="M 969.5,506.5 C 970.833,507.167 970.833,507.167 969.5,506.5 Z"/></g>
<g><path style="opacity:0.985" fill="#0b0a0b" d="M 865.5,507.5 C 870.695,506.944 875.528,507.944 880,510.5C 880.333,511.5 880.667,512.5 881,513.5C 881.793,537.19 881.626,560.857 880.5,584.5C 875.329,586.349 869.996,586.849 864.5,586C 861.572,584.74 859.739,582.573 859,579.5C 858.333,557.5 858.333,535.5 859,513.5C 860.494,510.686 862.66,508.686 865.5,507.5 Z M 866.5,509.5 C 862.936,511.096 860.936,513.93 860.5,518C 860.805,537.798 860.805,557.465 860.5,577C 861.218,578.987 862.218,580.821 863.5,582.5C 867.696,584.622 872.029,584.789 876.5,583C 878.004,581.509 878.837,579.676 879,577.5C 879.667,557.5 879.667,537.5 879,517.5C 878.913,514.422 877.579,512.088 875,510.5C 872.547,511.493 870.047,511.66 867.5,511C 873.864,510.019 873.531,509.519 866.5,509.5 Z"/></g>
<g><path style="opacity:0.993" fill="#2fecfd" d="M 99.5,475.5 C 100.173,525.194 100.84,575.027 101.5,625C 105.814,631.126 110.647,631.626 116,626.5C 116.212,623.242 116.712,620.076 117.5,617C 117.167,616.667 116.833,616.333 116.5,616C 117.428,615.612 118.095,614.945 118.5,614C 117.448,610.405 116.781,606.739 116.5,603C 117.511,599.139 117.511,595.306 116.5,591.5C 116.529,589.971 117.196,588.804 118.5,588C 116.256,585.624 115.923,582.957 117.5,580C 116.806,575.532 116.14,571.032 115.5,566.5C 116.167,566.167 116.833,565.833 117.5,565.5C 116.927,559.593 116.927,553.593 117.5,547.5C 117.61,545.626 116.944,544.126 115.5,543C 116.167,542 116.833,541 117.5,540C 117.206,536.352 116.872,532.685 116.5,529C 116.759,527.739 117.426,526.739 118.5,526C 117.351,524.396 117.351,522.73 118.5,521C 117.833,520 117.167,519 116.5,518C 116.976,514.997 116.976,511.83 116.5,508.5C 116.667,506.167 116.833,503.833 117,501.5C 117.232,502.737 117.732,503.737 118.5,504.5C 118.833,504.5 119.167,504.5 119.5,504.5C 119.667,544.168 119.5,583.835 119,623.5C 118.427,625.641 117.594,627.641 116.5,629.5C 110.607,633.333 105.107,632.667 100,627.5C 99.0266,625.608 98.3599,623.608 98,621.5C 97.3333,573.833 97.3333,526.167 98,478.5C 98.2321,477.263 98.7321,476.263 99.5,475.5 Z"/></g>
<g><path style="opacity:0.004" fill="#2c2c2c" d="M 963.5,509.5 C 964.833,510.167 964.833,510.167 963.5,509.5 Z"/></g>
<g><path style="opacity:0.004" fill="#37e7f9" d="M 67.5,532.5 C 68.5735,533.251 68.7401,534.251 68,535.5C 67.5172,534.552 67.3505,533.552 67.5,532.5 Z"/></g>
<g><path style="opacity:0.008" fill="#2febfe" d="M 343.5,533.5 C 346.001,533.511 346.168,534.178 344,535.5C 343.536,534.906 343.369,534.239 343.5,533.5 Z"/></g>
<g><path style="opacity:0.989" fill="#0f0e0f" d="M 739.5,497.5 C 740.675,497.281 741.675,497.614 742.5,498.5C 741.456,500.768 741.289,503.101 742,505.5C 746.387,528.6 751.22,551.6 756.5,574.5C 756.444,575.737 755.944,576.737 755,577.5C 744.863,576.176 734.697,576.176 724.5,577.5C 728.616,550.824 733.616,524.157 739.5,497.5 Z"/></g>
<g><path style="opacity:0.998" fill="#1d1b1b" d="M 739.5,507.5 C 744.61,529.625 749.277,551.958 753.5,574.5C 744.5,574.5 735.5,574.5 726.5,574.5C 730.702,552.155 735.036,529.821 739.5,507.5 Z"/></g>
<g><path style="opacity:0.992" fill="#100f0f" d="M 518.5,489.5 C 521.536,481.191 520.869,473.191 516.5,465.5C 517.172,464.733 518.005,464.066 519,463.5C 519.036,465.941 519.869,467.941 521.5,469.5C 522.328,474.132 522.828,478.798 523,483.5C 523.383,484.056 523.883,484.389 524.5,484.5C 525.302,485.952 525.802,487.618 526,489.5C 526.333,488.167 526.667,486.833 527,485.5C 527.499,488.022 527.332,490.522 526.5,493C 533.915,534.943 541.415,577.776 549,621.5C 550.517,633.513 557.35,639.18 569.5,638.5C 576.669,639.391 582.502,637.057 587,631.5C 593.202,600.626 598.868,569.626 604,538.5C 609.71,568.801 615.377,598.801 621,628.5C 622.442,632.275 624.942,635.108 628.5,637C 634.749,638.536 641.083,638.87 647.5,638C 653.893,636.273 657.393,632.106 658,625.5C 667.044,577.746 676.378,528.746 686,478.5C 687.159,471.959 685.326,466.459 680.5,462C 678.655,460.872 676.655,460.372 674.5,460.5C 667.356,458.711 661.856,461.044 658,467.5C 652.118,501.842 646.285,536.175 640.5,570.5C 639.503,570.53 638.836,570.03 638.5,569C 643.933,534.802 649.6,500.636 655.5,466.5C 657.688,461.741 661.355,458.907 666.5,458C 682.839,456.007 690.339,463.174 689,479.5C 678.91,528.7 669.243,578.033 660,627.5C 659.333,629.5 658.667,631.5 658,633.5C 649.911,641.254 640.411,643.421 629.5,640C 625.254,638.802 622.087,636.302 620,632.5C 614.153,605.93 608.819,579.263 604,552.5C 599.386,578.464 595.053,604.464 591,630.5C 589.285,632.759 587.452,634.926 585.5,637C 576.935,641.624 567.935,642.624 558.5,640C 551.925,636.423 548.091,630.923 547,623.5C 539.441,579.814 531.775,536.147 524,492.5C 523.458,487.279 522.624,487.279 521.5,492.5C 521.264,491.753 520.93,490.92 520.5,490C 519.906,489.536 519.239,489.369 518.5,489.5 Z"/></g>
<g><path style="opacity:0.008" fill="#2a2b2c" d="M 554.5,491.5 C 555.773,492.077 555.773,492.743 554.5,493.5C 553.537,493.03 553.537,492.363 554.5,491.5 Z"/></g>
<g><path style="opacity:0.01" fill="#2b2b2d" d="M 553.5,484.5 C 554.782,485.708 554.782,487.042 553.5,488.5C 553.094,487.443 553.094,486.109 553.5,484.5 Z"/></g>
<g><path style="opacity:0.004" fill="#272526" d="M 680.5,464.5 C 681.773,465.077 681.773,465.743 680.5,466.5C 679.537,466.03 679.537,465.363 680.5,464.5 Z"/></g>
<g><path style="opacity:0.004" fill="#2a2627" d="M 674.5,460.5 C 674.918,461.222 675.584,461.722 676.5,462C 675.365,462.749 674.365,462.583 673.5,461.5C 673.624,460.893 673.957,460.56 674.5,460.5 Z"/></g>
<g><path style="opacity:0.004" fill="#3e6b72" d="M 515.5,559.5 C 515.607,561.379 515.107,561.712 514,560.5C 513.368,557.125 513.868,556.791 515.5,559.5 Z"/></g>
<g><path style="opacity:0.004" fill="#39e8f8" d="M 67.5,566.5 C 68.8333,567.167 68.8333,567.167 67.5,566.5 Z"/></g>
<g><path style="opacity:0.004" fill="#3ae7f8" d="M 67.5,574.5 C 68.8333,575.167 68.8333,575.167 67.5,574.5 Z"/></g>
<g><path style="opacity:0.004" fill="#2e2e2c" d="M 953.5,586.5 C 954.833,587.167 954.833,587.167 953.5,586.5 Z"/></g>
<g><path style="opacity:0.009" fill="#30eafd" d="M 284.5,607.5 C 286.337,607.639 286.67,608.306 285.5,609.5C 284.702,609.043 284.369,608.376 284.5,607.5 Z"/></g>
<g><path style="opacity:0.012" fill="#32ecfd" d="M 148.5,611.5 C 147.833,612.167 147.833,612.167 148.5,611.5 Z"/></g>
<g><path style="opacity:0.421" fill="#232222" d="M 931.5,492.5 C 931.832,537.67 931.499,582.67 930.5,627.5C 930.667,603.498 930.5,579.498 930,555.5C 929.667,572.167 929.333,588.833 929,605.5C 928.333,568.5 928.333,531.5 929,494.5C 929.333,514.5 929.667,534.5 930,554.5C 930.168,533.663 930.668,512.996 931.5,492.5 Z"/></g>
<g><path style="opacity:0.973" fill="#39a5b7" d="M 522.5,610.5 C 523.167,611.5 523.833,612.5 524.5,613.5C 524.461,615.224 524.794,615.557 525.5,614.5C 526.451,615.919 526.784,617.585 526.5,619.5C 525.732,618.737 525.232,617.737 525,616.5C 524.22,618.387 524.387,620.054 525.5,621.5C 525.167,624.833 524.833,628.167 524.5,631.5C 524.167,631.5 523.833,631.5 523.5,631.5C 523.674,624.465 523.341,617.465 522.5,610.5 Z"/></g>
<g><path style="opacity:0.012" fill="#34ebfc" d="M 441.5,626.5 C 442.833,627.167 442.833,627.167 441.5,626.5 Z"/></g>
<g><path style="opacity:0.004" fill="#282627" d="M 927.5,627.5 C 928.077,626.227 928.743,626.227 929.5,627.5C 929.03,628.463 928.363,628.463 927.5,627.5 Z"/></g>
<g><path style="opacity:0.004" fill="#33ebfc" d="M 147.5,627.5 C 148.833,628.167 148.833,628.167 147.5,627.5 Z"/></g>
<g><path style="opacity:0.004" fill="#34ecfc" d="M 147.5,630.5 C 148.833,631.167 148.833,631.167 147.5,630.5 Z"/></g>
<g><path style="opacity:0.004" fill="#418796" d="M 525.5,630.5 C 526.833,631.167 526.833,631.167 525.5,630.5 Z"/></g>
<g><path style="opacity:0.016" fill="#43848b" d="M 524.5,631.5 C 524.833,631.5 525.167,631.5 525.5,631.5C 525.315,632.17 524.981,632.17 524.5,631.5 Z"/></g>
<g><path style="opacity:0.005" fill="#282728" d="M 576.5,631.5 C 579.001,631.511 579.168,632.178 577,633.5C 576.536,632.906 576.369,632.239 576.5,631.5 Z"/></g>
<g><path style="opacity:0.004" fill="#2b2828" d="M 744.5,633.5 C 744.631,634.239 744.464,634.906 744,635.5C 743.308,634.563 743.475,633.897 744.5,633.5 Z"/></g>
<g><path style="opacity:0.004" fill="#33e9f9" d="M 435.5,638.5 C 436.833,639.167 436.833,639.167 435.5,638.5 Z"/></g>
<g><path style="opacity:0.004" fill="#448c94" d="M 523.5,638.5 C 524.833,639.167 524.833,639.167 523.5,638.5 Z"/></g>
<g><path style="opacity:0.008" fill="#40747a" d="M 529.5,641.5 C 527.663,641.361 527.33,640.694 528.5,639.5C 529.298,639.957 529.631,640.624 529.5,641.5 Z"/></g>
<g><path style="opacity:0.008" fill="#292627" d="M 744.5,639.5 C 745.525,639.897 745.692,640.563 745,641.5C 744.536,640.906 744.369,640.239 744.5,639.5 Z"/></g>
<g><path style="opacity:0.008" fill="#2a2829" d="M 732.5,640.5 C 733.833,641.167 733.833,641.167 732.5,640.5 Z"/></g>
<g><path style="opacity:0.004" fill="#2a2a28" d="M 734.5,640.5 C 735.833,641.167 735.833,641.167 734.5,640.5 Z"/></g>
<g><path style="opacity:0.008" fill="#3f6c73" d="M 529.5,641.5 C 529.833,641.5 530.167,641.5 530.5,641.5C 530.315,642.17 529.981,642.17 529.5,641.5 Z"/></g>
<g><path style="opacity:0.012" fill="#38dceb" d="M 74.5,642.5 C 73.8333,643.167 73.8333,643.167 74.5,642.5 Z"/></g>
<g><path style="opacity:0.008" fill="#34e9f9" d="M 240.5,642.5 C 240.833,642.5 241.167,642.5 241.5,642.5C 241.315,643.17 240.981,643.17 240.5,642.5 Z"/></g>
<g><path style="opacity:0.004" fill="#292929" d="M 731.5,642.5 C 732.833,643.167 732.833,643.167 731.5,642.5 Z"/></g>
<g><path style="opacity:0.004" fill="#292826" d="M 745.5,642.5 C 746.833,643.167 746.833,643.167 745.5,642.5 Z"/></g>
<g><path style="opacity:0.008" fill="#3e737b" d="M 528.5,643.5 C 529.833,644.167 529.833,644.167 528.5,643.5 Z"/></g>
<g><path style="opacity:0.008" fill="#3c686e" d="M 531.5,643.5 C 530.833,644.167 530.833,644.167 531.5,643.5 Z"/></g>
<g><path style="opacity:0.012" fill="#2c2b2d" d="M 949.5,643.5 C 950.833,644.167 950.833,644.167 949.5,643.5 Z"/></g>
<g><path style="opacity:0.004" fill="#292828" d="M 730.5,644.5 C 731.833,645.167 731.833,645.167 730.5,644.5 Z"/></g>
<g><path style="opacity:0.004" fill="#282729" d="M 746.5,644.5 C 747.833,645.167 747.833,645.167 746.5,644.5 Z"/></g>
<g><path style="opacity:0.004" fill="#37d9ea" d="M 77.5,646.5 C 76.8333,647.167 76.8333,647.167 77.5,646.5 Z"/></g>
<g><path style="opacity:0.004" fill="#46a9b3" d="M 516.5,648.5 C 517.833,649.167 517.833,649.167 516.5,648.5 Z"/></g>
<g><path style="opacity:0.004" fill="#47a0ac" d="M 518.5,648.5 C 519.833,649.167 519.833,649.167 518.5,648.5 Z"/></g>
<g><path style="opacity:0.004" fill="#3ce2f2" d="M 460.5,651.5 C 459.833,652.167 459.833,652.167 460.5,651.5 Z"/></g>
<g><path style="opacity:0.006" fill="#3d5860" d="M 536.5,649.5 C 537.167,649.5 537.5,649.833 537.5,650.5C 537.5,651.833 538.167,652.5 539.5,652.5C 539.671,655.797 539.005,656.131 537.5,653.5C 536.914,653.709 536.414,654.043 536,654.5C 536.252,652.719 536.419,651.052 536.5,649.5 Z"/></g>
<g><path style="opacity:0.004" fill="#44b8c6" d="M 511.5,653.5 C 512.833,654.167 512.833,654.167 511.5,653.5 Z"/></g>
<g><path style="opacity:0.024" fill="#34dff4" d="M 177.5,654.5 C 177.103,655.525 176.437,655.692 175.5,655C 176.094,654.536 176.761,654.369 177.5,654.5 Z"/></g>
<g><path style="opacity:0.004" fill="#35e6f4" d="M 228.5,654.5 C 229.833,655.167 229.833,655.167 228.5,654.5 Z"/></g>
<g><path style="opacity:0.008" fill="#394f54" d="M 540.5,654.5 C 541.833,655.167 541.833,655.167 540.5,654.5 Z"/></g>
<g><path style="opacity:0.008" fill="#2b2b2d" d="M 671.5,654.5 C 671.833,654.5 672.167,654.5 672.5,654.5C 672.315,655.17 671.981,655.17 671.5,654.5 Z"/></g>
<g><path style="opacity:0.004" fill="#3cd5e6" d="M 88.5,656.5 C 87.8333,657.167 87.8333,657.167 88.5,656.5 Z"/></g>
<g><path style="opacity:0.004" fill="#2c2d2c" d="M 806.5,657.5 C 807.833,658.167 807.833,658.167 806.5,657.5 Z"/></g>
<g><path style="opacity:0.004" fill="#2f2e2d" d="M 677.5,658.5 C 678.833,659.167 678.833,659.167 677.5,658.5 Z"/></g>
<g><path style="opacity:0.004" fill="#2d2d2b" d="M 762.5,658.5 C 762.103,659.525 761.437,659.692 760.5,659C 761.094,658.536 761.761,658.369 762.5,658.5 Z"/></g>
<g><path style="opacity:0.004" fill="#2f2e2f" d="M 799.5,658.5 C 800.833,659.167 800.833,659.167 799.5,658.5 Z"/></g>
<g><path style="opacity:0.004" fill="#2a2b2a" d="M 810.5,658.5 C 809.833,659.167 809.833,659.167 810.5,658.5 Z"/></g>
<g><path style="opacity:0.004" fill="#2d2b2c" d="M 896.5,657.5 C 897.463,658.363 897.463,659.03 896.5,659.5C 895.227,658.743 895.227,658.077 896.5,657.5 Z"/></g>
<g><path style="opacity:0.004" fill="#38474a" d="M 549.5,660.5 C 549.897,659.475 550.563,659.308 551.5,660C 550.906,660.464 550.239,660.631 549.5,660.5 Z"/></g>
<g><path style="opacity:0.004" fill="#2e2b2d" d="M 680.5,659.5 C 681.167,659.5 681.833,659.5 682.5,659.5C 681.833,660.833 681.167,660.833 680.5,659.5 Z"/></g>
<g><path style="opacity:0.004" fill="#2c2b2c" d="M 811.5,659.5 C 812.833,660.167 812.833,660.167 811.5,659.5 Z"/></g>
<g><path style="opacity:0.006" fill="#2e2b2c" d="M 900.5,659.5 C 900.103,660.525 899.437,660.692 898.5,660C 899.094,659.536 899.761,659.369 900.5,659.5 Z"/></g>
<g><path style="opacity:0.004" fill="#2e2e2d" d="M 930.5,659.5 C 931.833,660.167 931.833,660.167 930.5,659.5 Z"/></g>
<g><path style="opacity:0.012" fill="#3ad7e9" d="M 97.5,660.5 C 97.1034,661.525 96.4368,661.692 95.5,661C 96.0944,660.536 96.7611,660.369 97.5,660.5 Z"/></g>
<g><path style="opacity:0.004" fill="#3bd9ec" d="M 474.5,660.5 C 475.833,661.167 475.833,661.167 474.5,660.5 Z"/></g>
<g><path style="opacity:0.01" fill="#363b3f" d="M 555.5,660.5 C 554.749,661.573 553.749,661.74 552.5,661C 553.448,660.517 554.448,660.351 555.5,660.5 Z"/></g>
<g><path style="opacity:0.012" fill="#2e312e" d="M 584.5,660.5 C 585.833,661.167 585.833,661.167 584.5,660.5 Z"/></g>
<g><path style="opacity:0.004" fill="#2b2d2b" d="M 817.5,660.5 C 816.833,661.167 816.833,661.167 817.5,660.5 Z"/></g>
<g><path style="opacity:0.016" fill="#2f2d2e" d="M 928.5,660.5 C 929.833,661.167 929.833,661.167 928.5,660.5 Z"/></g>
<g><path style="opacity:0.012" fill="#3cd5e6" d="M 98.5,661.5 C 99.8333,662.167 99.8333,662.167 98.5,661.5 Z"/></g>
<g><path style="opacity:0.004" fill="#39d5e8" d="M 100.5,661.5 C 101.833,662.167 101.833,662.167 100.5,661.5 Z"/></g>
<g><path style="opacity:0.006" fill="#3cd7e7" d="M 115.5,662.5 C 116.251,661.427 117.251,661.26 118.5,662C 117.552,662.483 116.552,662.649 115.5,662.5 Z"/></g>
<g><path style="opacity:0.004" fill="#39e1f3" d="M 346.5,662.5 C 346.897,661.475 347.563,661.308 348.5,662C 347.906,662.464 347.239,662.631 346.5,662.5 Z"/></g>
<g><path style="opacity:0.014" fill="#302d2d" d="M 626.5,661.5 C 627.492,661.328 628.158,661.662 628.5,662.5C 627.508,662.672 626.842,662.338 626.5,661.5 Z"/></g>
<g><path style="opacity:0.004" fill="#2e2c2d" d="M 686.5,661.5 C 687.833,662.167 687.833,662.167 686.5,661.5 Z"/></g>
<g><path style="opacity:0.004" fill="#2e2f2f" d="M 706.5,661.5 C 707.833,662.167 707.833,662.167 706.5,661.5 Z"/></g>
<g><path style="opacity:0.008" fill="#2d2e2d" d="M 768.5,661.5 C 769.833,662.167 769.833,662.167 768.5,661.5 Z"/></g>
<g><path style="opacity:0.01" fill="#302e2e" d="M 818.5,662.5 C 819.077,661.227 819.743,661.227 820.5,662.5C 820.03,663.463 819.363,663.463 818.5,662.5 Z"/></g>
<g><path style="opacity:0.004" fill="#2d2f2b" d="M 899.5,661.5 C 900.833,662.167 900.833,662.167 899.5,661.5 Z"/></g>
<g><path style="opacity:0.014" fill="#2f2c2e" d="M 908.5,661.5 C 908.103,662.525 907.437,662.692 906.5,662C 907.094,661.536 907.761,661.369 908.5,661.5 Z"/></g>
<g><path style="opacity:0.01" fill="#3ad5e9" d="M 103.5,663.5 C 105.628,662.371 107.961,662.204 110.5,663C 108.19,663.497 105.857,663.663 103.5,663.5 Z"/></g>
<g><path style="opacity:0.008" fill="#3dd6e7" d="M 111.5,662.5 C 112.833,663.167 112.833,663.167 111.5,662.5 Z"/></g>
<g><path style="opacity:0.01" fill="#38dff1" d="M 199.5,663.5 C 199.897,662.475 200.563,662.308 201.5,663C 200.906,663.464 200.239,663.631 199.5,663.5 Z"/></g>
<g><path style="opacity:0.016" fill="#39def0" d="M 202.5,663.5 C 203.251,662.427 204.251,662.26 205.5,663C 204.552,663.483 203.552,663.649 202.5,663.5 Z"/></g>
<g><path style="opacity:0.004" fill="#36e4f7" d="M 280.5,662.5 C 281.833,663.167 281.833,663.167 280.5,662.5 Z"/></g>
<g><path style="opacity:0.004" fill="#39e2f4" d="M 284.5,662.5 C 285.833,663.167 285.833,663.167 284.5,662.5 Z"/></g>
<g><path style="opacity:0.004" fill="#36e4f7" d="M 300.5,662.5 C 301.833,663.167 301.833,663.167 300.5,662.5 Z"/></g>
<g><path style="opacity:0.004" fill="#36e3f5" d="M 308.5,662.5 C 309.833,663.167 309.833,663.167 308.5,662.5 Z"/></g>
<g><path style="opacity:0.004" fill="#37e4f7" d="M 311.5,662.5 C 312.833,663.167 312.833,663.167 311.5,662.5 Z"/></g>
<g><path style="opacity:0.004" fill="#37e5f5" d="M 314.5,662.5 C 313.833,663.167 313.833,663.167 314.5,662.5 Z"/></g>
<g><path style="opacity:0.004" fill="#39e4f7" d="M 316.5,662.5 C 317.833,663.167 317.833,663.167 316.5,662.5 Z"/></g>
<g><path style="opacity:0.004" fill="#38e4f4" d="M 324.5,662.5 C 325.833,663.167 325.833,663.167 324.5,662.5 Z"/></g>
<g><path style="opacity:0.008" fill="#37e2f3" d="M 340.5,662.5 C 341.833,663.167 341.833,663.167 340.5,662.5 Z"/></g>
<g><path style="opacity:0.012" fill="#3bdfef" d="M 395.5,663.5 C 395.897,662.475 396.563,662.308 397.5,663C 396.906,663.464 396.239,663.631 395.5,663.5 Z"/></g>
<g><path style="opacity:0.004" fill="#3adbee" d="M 401.5,662.5 C 402.833,663.167 402.833,663.167 401.5,662.5 Z"/></g>
<g><path style="opacity:0.008" fill="#3dd4e6" d="M 482.5,663.5 C 483.251,662.427 484.251,662.26 485.5,663C 484.552,663.483 483.552,663.649 482.5,663.5 Z"/></g>
<g><path style="opacity:0.008" fill="#3bd4e7" d="M 488.5,662.5 C 489.833,663.167 489.833,663.167 488.5,662.5 Z"/></g>
<g><path style="opacity:0.004" fill="#40cfe2" d="M 490.5,663.5 C 491.251,662.427 492.251,662.26 493.5,663C 492.552,663.483 491.552,663.649 490.5,663.5 Z"/></g>
<g><path style="opacity:0.008" fill="#343638" d="M 562.5,663.5 C 564.628,662.371 566.961,662.204 569.5,663C 567.19,663.497 564.857,663.663 562.5,663.5 Z"/></g>
<g><path style="opacity:0.004" fill="#303133" d="M 571.5,663.5 C 572.601,662.402 573.934,662.235 575.5,663C 574.207,663.49 572.873,663.657 571.5,663.5 Z"/></g>
<g><path style="opacity:0.004" fill="#2e2f2f" d="M 628.5,662.5 C 629.833,663.167 629.833,663.167 628.5,662.5 Z"/></g>
<g><path style="opacity:0.004" fill="#2b2e2f" d="M 632.5,662.5 C 633.833,663.167 633.833,663.167 632.5,662.5 Z"/></g>
<g><path style="opacity:0.012" fill="#2d2d2d" d="M 634.5,663.5 C 635.946,662.387 637.613,662.22 639.5,663C 637.866,663.494 636.199,663.66 634.5,663.5 Z"/></g>
<g><path style="opacity:0.012" fill="#2c2c2c" d="M 640.5,662.5 C 641.833,663.167 641.833,663.167 640.5,662.5 Z"/></g>
<g><path style="opacity:0.008" fill="#302d2e" d="M 643.5,663.5 C 643.897,662.475 644.563,662.308 645.5,663C 644.906,663.464 644.239,663.631 643.5,663.5 Z"/></g>
<g><path style="opacity:0.005" fill="#2f2f2e" d="M 688.5,663.5 C 689.251,662.427 690.251,662.26 691.5,663C 690.552,663.483 689.552,663.649 688.5,663.5 Z"/></g>
<g><path style="opacity:0.012" fill="#2e2e2d" d="M 692.5,662.5 C 693.833,663.167 693.833,663.167 692.5,662.5 Z"/></g>
<g><path style="opacity:0.007" fill="#2e2d2d" d="M 694.5,663.5 C 695.251,662.427 696.251,662.26 697.5,663C 696.552,663.483 695.552,663.649 694.5,663.5 Z"/></g>
<g><path style="opacity:0.011" fill="#2e2d2f" d="M 698.5,663.5 C 699.946,662.387 701.613,662.22 703.5,663C 701.866,663.494 700.199,663.66 698.5,663.5 Z"/></g>
<g><path style="opacity:0.008" fill="#2c2c2b" d="M 777.5,662.5 C 778.833,663.167 778.833,663.167 777.5,662.5 Z"/></g>
<g><path style="opacity:0.006" fill="#2c2b2c" d="M 779.5,663.5 C 779.897,662.475 780.563,662.308 781.5,663C 780.906,663.464 780.239,663.631 779.5,663.5 Z"/></g>
<g><path style="opacity:0.008" fill="#2b2a2a" d="M 782.5,662.5 C 783.833,663.167 783.833,663.167 782.5,662.5 Z"/></g>
<g><path style="opacity:0.008" fill="#2a2b2c" d="M 784.5,662.5 C 785.833,663.167 785.833,663.167 784.5,662.5 Z"/></g>
<g><path style="opacity:0.008" fill="#302e2e" d="M 825.5,663.5 C 825.897,662.475 826.563,662.308 827.5,663C 826.906,663.464 826.239,663.631 825.5,663.5 Z"/></g>
<g><path style="opacity:0.008" fill="#2f2e2d" d="M 828.5,662.5 C 829.833,663.167 829.833,663.167 828.5,662.5 Z"/></g>
<g><path style="opacity:0.004" fill="#2f2b2c" d="M 830.5,662.5 C 831.833,663.167 831.833,663.167 830.5,662.5 Z"/></g>
<g><path style="opacity:0.004" fill="#2e2f2d" d="M 834.5,662.5 C 835.833,663.167 835.833,663.167 834.5,662.5 Z"/></g>
<g><path style="opacity:0.004" fill="#2d2c2d" d="M 836.5,662.5 C 837.833,663.167 837.833,663.167 836.5,662.5 Z"/></g>
<g><path style="opacity:0.004" fill="#2b2c2e" d="M 844.5,662.5 C 845.833,663.167 845.833,663.167 844.5,662.5 Z"/></g>
<g><path style="opacity:0.004" fill="#2f2f2e" d="M 848.5,662.5 C 849.833,663.167 849.833,663.167 848.5,662.5 Z"/></g>
<g><path style="opacity:0.008" fill="#2e2f2f" d="M 852.5,662.5 C 853.833,663.167 853.833,663.167 852.5,662.5 Z"/></g>
<g><path style="opacity:0.004" fill="#2e2c2c" d="M 860.5,662.5 C 861.833,663.167 861.833,663.167 860.5,662.5 Z"/></g>
<g><path style="opacity:0.008" fill="#2d2d2d" d="M 915.5,663.5 C 915.897,662.475 916.563,662.308 917.5,663C 916.906,663.464 916.239,663.631 915.5,663.5 Z"/></g>
<g><path style="opacity:0.008" fill="#2d2d2b" d="M 918.5,662.5 C 919.833,663.167 919.833,663.167 918.5,662.5 Z"/></g>
</svg>
